<svg xmlns="http://www.w3.org/2000/svg" xmlns:xlink="http://www.w3.org/1999/xlink" width="130" height="130" viewBox="0 0 130 130"><defs><clipPath id="b"><rect width="130" height="130"/></clipPath></defs><g id="a" clip-path="url(#b)"><rect width="130" height="130" fill="#f6f6f6"/><g transform="translate(0.001)"><ellipse cx="65" cy="65" rx="65" ry="65" transform="translate(0 0)" fill="#213b71"/></g><g transform="translate(19580 3261)"><g transform="translate(-19541.859 -3222.861)"><path d="M625.242-300.438h-.036a24.06,24.06,0,0,0-16.121-21.9,2.686,2.686,0,0,0-2.645-2.279H595.7a2.686,2.686,0,0,0-2.645,2.279,24.06,24.06,0,0,0-16.121,21.9h-.036a2.686,2.686,0,0,0-2.687,2.686v1.791a2.686,2.686,0,0,0,2.687,2.686h48.349a2.686,2.686,0,0,0,2.686-2.686v-1.791A2.686,2.686,0,0,0,625.242-300.438Zm-32.233-19.975v15.5a.9.9,0,0,0,.9.9.9.9,0,0,0,.9-.9v-17.012a.9.9,0,0,1,.9-.895h4.477v19.7a.9.9,0,0,0,.895.895.9.9,0,0,0,.9-.895v-19.7h4.477a.9.9,0,0,1,.9.895v17.012a.9.9,0,0,0,.9.9.9.9,0,0,0,.895-.9v-15.5a22.277,22.277,0,0,1,14.29,19.975h-44.7A22.277,22.277,0,0,1,593.009-320.413Zm33.129,24.452a.9.9,0,0,1-.9.895H576.894a.9.9,0,0,1-.9-.895v-1.791a.9.9,0,0,1,.9-.9h48.349a.9.9,0,0,1,.9.9Z" transform="translate(-574.207 324.613)" fill="#fff" stroke="#fff" stroke-width="1"/><path d="M627.034-269.121h-3.671a4.485,4.485,0,0,0-4.387-3.581H583.161a4.482,4.482,0,0,0-4.477,4.477H575.1a.9.9,0,0,0-.9.895v7.163a.9.9,0,0,0,.9.895h3.85a6.274,6.274,0,0,0,6,4.477h5.372a11.7,11.7,0,0,0,10-5.677.878.878,0,0,1,1.21-.279.872.872,0,0,1,.279.279,11.7,11.7,0,0,0,10,5.677h5.372a6.268,6.268,0,0,0,6.2-5.372h3.653a.9.9,0,0,0,.895-.9v-7.163A.9.9,0,0,0,627.034-269.121Zm-48.35,8.058H576v-2.686h2.686Zm0-4.477H576v-.9h2.686Zm42.977,4.477a4.482,4.482,0,0,1-4.477,4.477h-5.372a9.907,9.907,0,0,1-8.463-4.805,2.668,2.668,0,0,0-3.664-.9,2.668,2.668,0,0,0-.9.9,9.9,9.9,0,0,1-8.459,4.805h-5.372a4.482,4.482,0,0,1-4.477-4.477v-7.163a2.686,2.686,0,0,1,2.686-2.687h35.815a2.686,2.686,0,0,1,2.686,2.687Zm4.477-.9h-2.686v-2.686h2.686Zm0-4.477h-2.686v-.9h2.686Z" transform="translate(-574.207 308.517)" fill="#fff" stroke="#fff" stroke-width="1"/><rect width="2.08" height="4.578" transform="translate(2.108 42.53)" fill="#fff" stroke="#fff" stroke-width="1"/><rect width="2.08" height="4.578" transform="translate(49.548 41.584)" fill="#fff" stroke="#fff" stroke-width="1"/></g><path d="M22737.006,7061.762a6.266,6.266,0,0,1-6-4.474h-3.852a.894.894,0,0,1-.893-.893v-7.164a.9.9,0,0,1,.893-.9h3.582a4.486,4.486,0,0,1,4.48-4.475h18.875l-1.2,1.791h-17.674a2.689,2.689,0,0,0-2.689,2.684v7.164a4.49,4.49,0,0,0,4.48,4.48h5.373c.313,0,.621-.017.928-.047l-1.229,1.832Zm-8.955-6.265h2.684v-2.684h-.285v2.34h-2.078v-2.34h-.32Zm2.4-4.921v.446h.285v-.9h-2.684v.9h.32v-.446Zm-1.506-11.192a2.688,2.688,0,0,1-2.684-2.689V7034.9a2.683,2.683,0,0,1,2.684-2.684h.041a24.056,24.056,0,0,1,16.117-21.9,2.689,2.689,0,0,1,2.65-2.277h10.74a2.7,2.7,0,0,1,2.648,2.277,24.031,24.031,0,0,1,10.547,7.305l-1.043,1.556a22.243,22.243,0,0,0-9.463-6.938v15.5a.9.9,0,1,1-1.791,0v-17.011a.9.9,0,0,0-.9-.893h-4.475v19.695a.9.9,0,1,1-1.791,0v-19.695h-4.475a.9.9,0,0,0-.9.893v17.011a.9.9,0,1,1-1.791,0v-15.5a22.284,22.284,0,0,0-14.293,19.976h31.129l-1.2,1.791h-31.754a.894.894,0,0,0-.893.893v1.791a.9.9,0,0,0,.893.9h29.35l-1.2,1.791Z" transform="translate(-42268.117 -10230.904)" fill="#fac913" stroke="#fac913" stroke-width="1"/></g></g></svg>