<svg xmlns="http://www.w3.org/2000/svg" xmlns:xlink="http://www.w3.org/1999/xlink" width="130" height="130" viewBox="0 0 130 130"><defs><clipPath id="b"><rect width="130" height="130"/></clipPath></defs><g id="a" clip-path="url(#b)"><rect width="130" height="130" fill="#f6f6f6"/><g transform="translate(-1174 -1898)"><g transform="translate(1174 1898)"><ellipse cx="65" cy="65" rx="65" ry="65" transform="translate(0 0)" fill="#213b71"/></g><g transform="translate(1215.447 1935.928)"><path d="M127.277-296.463,118.488-311.9a2.476,2.476,0,0,0,1.366-2.435L119.2-319.8l3.741-3.92a2.445,2.445,0,0,0,.059-3.266l-3.741-4.038.772-5.523a2.457,2.457,0,0,0-1.9-2.613l-5.4-1.069-2.613-4.81a2.337,2.337,0,0,0-3.029-1.129h-.059l-4.988,2.316-4.87-2.376a2.322,2.322,0,0,0-1.781-.178,2.344,2.344,0,0,0-1.366,1.129l-2.672,4.81-5.4.951a2.436,2.436,0,0,0-1.96,2.672l.653,5.464L80.9-327.463a2.446,2.446,0,0,0-.059,3.267l3.741,4.038-.772,5.522a2.445,2.445,0,0,0,1.544,2.494L76.5-296.463a1.208,1.208,0,0,0,0,1.188,1.225,1.225,0,0,0,1.009.593h9.5l4.335,7.543a1.224,1.224,0,0,0,1.009.594,1.149,1.149,0,0,0,1.009-.594l8.492-14.49,8.493,14.668a1.224,1.224,0,0,0,1.009.594,1.149,1.149,0,0,0,1.009-.594l4.335-7.72h9.5a1.149,1.149,0,0,0,1.009-.593A.983.983,0,0,0,127.277-296.463Zm-34.859,6.354-3.682-6.354a1.225,1.225,0,0,0-1.009-.594h-8.2l8.2-14.49,3.385.594,2.613,4.811a2.336,2.336,0,0,0,3.029,1.128h.059l2.435-1.128,1.188,2.078Zm3.444-17.044H95.8l-2.613-4.928a2.218,2.218,0,0,0-1.663-1.129l-5.463-1.009.772-5.464a2.309,2.309,0,0,0-.594-1.96l-3.682-4.038L86.3-329.6a2.23,2.23,0,0,0,.654-1.96l-.654-5.4a.185.185,0,0,1,.06-.119l5.4-.95a2.4,2.4,0,0,0,1.663-1.188l2.673-4.81,4.87,2.376a2.271,2.271,0,0,0,2.137,0l4.929-2.257h.059l2.613,4.929a2.22,2.22,0,0,0,1.6,1.129l5.4,1.069-.772,5.464a2.309,2.309,0,0,0,.594,1.96l3.741,4.038-3.8,3.92a2.23,2.23,0,0,0-.654,1.96l.654,5.464-5.345.89a2.4,2.4,0,0,0-1.663,1.188l-2.673,4.811-4.869-2.376a2.272,2.272,0,0,0-2.138,0Zm20.191,10.1a1.149,1.149,0,0,0-1.009.594l-3.682,6.532-8.373-14.49a.952.952,0,0,0-.238-.415l-1.306-2.316.415-.178,4.87,2.375a2.325,2.325,0,0,0,1.069.238,2.343,2.343,0,0,0,2.079-1.188l2.673-4.81,3.563-.653,8.136,14.312Z" transform="translate(-76.345 346.507)" fill="#fff" stroke="#fff" stroke-miterlimit="10" stroke-width="0.8"/><path d="M120.582-321.012A11.912,11.912,0,0,0,108.7-332.889a11.912,11.912,0,0,0-11.877,11.877A11.912,11.912,0,0,0,108.7-309.135,11.912,11.912,0,0,0,120.582-321.012Zm-11.878,9.5a9.53,9.53,0,0,1-9.5-9.5,9.53,9.53,0,0,1,9.5-9.5,9.53,9.53,0,0,1,9.5,9.5A9.53,9.53,0,0,1,108.7-311.51Z" transform="translate(-83.19 341.956)" fill="#fff" stroke="#fff" stroke-miterlimit="10" stroke-width="0.8"/><path d="M10.669,51.825h-9.5a1.227,1.227,0,0,1-1.01-.593,1.211,1.211,0,0,1,0-1.188L9.005,34.366a2.447,2.447,0,0,1-1.544-2.495l.773-5.522L4.492,22.311a2.447,2.447,0,0,1,.06-3.267l3.741-3.919L7.639,9.662A2.436,2.436,0,0,1,9.6,6.99L15,6.038l2.673-4.809a2.312,2.312,0,0,1,3.147-.95l4.87,2.376L30.681.338h.06a2.336,2.336,0,0,1,3.028,1.128l2.613,4.81,5.4,1.069q.108.022.212.054L40.55,9.559l-4.583-.906a2.223,2.223,0,0,1-1.6-1.129L31.75,2.595h-.06L26.761,4.851a2.267,2.267,0,0,1-2.137,0L19.754,2.476l-2.672,4.81a2.4,2.4,0,0,1-1.663,1.188l-5.4.95a.185.185,0,0,0-.06.119l.654,5.4a2.231,2.231,0,0,1-.654,1.96l-3.741,3.92L9.9,24.865a2.306,2.306,0,0,1,.594,1.959l-.772,5.464,5.463,1.01a2.215,2.215,0,0,1,1.664,1.128l2.612,4.928h.06l1.524-.716-2.01,3a2.272,2.272,0,0,1-1.651-1.271l-2.613-4.81-3.385-.594-8.2,14.49h8.2a1.224,1.224,0,0,1,1.009.594l.463.8-1.48,2.207Zm2.969-30.88A11.873,11.873,0,0,1,36.275,15.93l-1.622,2.417a9.5,9.5,0,1,0-8.078,12.04l-1.624,2.421A11.915,11.915,0,0,1,13.638,20.945Z" transform="translate(0 0)" fill="#fac913" stroke="#fac913" stroke-width="1"/></g></g></g></svg>