<svg xmlns="http://www.w3.org/2000/svg" xmlns:xlink="http://www.w3.org/1999/xlink" width="130" height="130" viewBox="0 0 130 130"><defs><clipPath id="b"><rect width="130" height="130"/></clipPath></defs><g id="a" clip-path="url(#b)"><rect width="130" height="130" fill="#f6f6f6"/><g transform="translate(-613.999 -1898)"><g transform="translate(614 1898)"><ellipse cx="65" cy="65" rx="65" ry="65" transform="translate(0 0)" fill="#213b71"/></g><g transform="translate(651.042 1936.321)"><g transform="translate(0 0)"><path d="M935.542-297.98l3.826-3.826a6.219,6.219,0,0,0,0-8.785,6.2,6.2,0,0,0-2.589-1.554,6.169,6.169,0,0,0,1.2-3.674,6.17,6.17,0,0,0-1.82-4.392,6.171,6.171,0,0,0-4.392-1.82c-.07,0-.139,0-.209,0a6.2,6.2,0,0,0-1.813-4.6,6.2,6.2,0,0,0-4.6-1.813c0-.069,0-.139,0-.209a6.174,6.174,0,0,0-1.82-4.392,6.22,6.22,0,0,0-8.785,0l-1.323,1.323-1.322-1.322a6.17,6.17,0,0,0-4.393-1.82,6.171,6.171,0,0,0-4.392,1.819,6.191,6.191,0,0,0-1.811,4.6c-.071,0-.14-.005-.21-.005a6.171,6.171,0,0,0-4.393,1.819,6.191,6.191,0,0,0-1.811,4.6c-.071,0-.14-.005-.211-.005a6.172,6.172,0,0,0-4.392,1.819,6.171,6.171,0,0,0-1.82,4.393,6.167,6.167,0,0,0,1.2,3.674,6.183,6.183,0,0,0-2.589,1.555,6.219,6.219,0,0,0-.016,8.767l.018.019,3.831,3.83.016.017a6.366,6.366,0,0,0,.733.628l-1.133,1.134a5.491,5.491,0,0,0-1.58,4.227,6.377,6.377,0,0,0,1.889,4.183l6.48,6.48a6.146,6.146,0,0,0,4.36,1.8,6.144,6.144,0,0,0,4.359-1.8l3.012-3.012a19.892,19.892,0,0,0,4.174.445,19.884,19.884,0,0,0,4.174-.444l3.011,3.012a6.148,6.148,0,0,0,4.36,1.8,6.15,6.15,0,0,0,4.36-1.8l6.48-6.48c2.4-2.4,2.677-6.041.608-8.11l-1.38-1.38.681-.681Zm-30.053-32.689a2.841,2.841,0,0,1,2.022-.837,2.84,2.84,0,0,1,2.022.837l5.131,5.131a2.863,2.863,0,0,1,0,4.044,2.84,2.84,0,0,1-2.021.837h0a2.838,2.838,0,0,1-2.021-.837l0,0-5.128-5.128-.013-.012A2.864,2.864,0,0,1,905.489-330.669Zm-6.422,10.45a2.862,2.862,0,0,1,.007-4.036,2.842,2.842,0,0,1,2.022-.837,2.837,2.837,0,0,1,2.02.836h0l.006.005,5.125,5.125.01.01,1.273,1.273a2.841,2.841,0,0,1,.838,2.022,2.837,2.837,0,0,1-.837,2.021,2.841,2.841,0,0,1-2.022.838,2.838,2.838,0,0,1-2.021-.838l-.02-.02-1.257-1.257-.005-.006-5.132-5.131h0Zm-6.406,2.378a2.839,2.839,0,0,1,2.02-.836,2.84,2.84,0,0,1,2.022.837l5.137,5.137a2.864,2.864,0,0,1-.005,4.039,2.845,2.845,0,0,1-2.023.836,2.837,2.837,0,0,1-2.021-.837l-.02-.02-5.1-5.1-.016-.017a2.839,2.839,0,0,1-.837-2.021A2.838,2.838,0,0,1,892.662-317.842Zm-3.191,13.682-.019-.02a2.862,2.862,0,0,1,0-4.041,2.838,2.838,0,0,1,2.022-.838,2.839,2.839,0,0,1,2.022.838l3.848,3.847a2.863,2.863,0,0,1,0,4.044,2.841,2.841,0,0,1-2.022.838h0a2.817,2.817,0,0,1-.416-.031l-.031-.005a2.836,2.836,0,0,1-1.564-.79l-.013-.013Zm19.49,16.374-.043-.009c-.033-.008-.067-.016-.1-.022l-.075-.011-.084-.009-.089,0H908.5c-.031,0-.062,0-.094.005l-.068.006c-.031,0-.061.008-.092.013s-.047.009-.071.014l-.082.02-.079.023-.071.025c-.028.011-.056.021-.083.033l-.065.03c-.027.013-.054.027-.081.042s-.043.025-.064.038-.049.03-.072.046-.047.034-.07.052l-.057.044c-.028.023-.053.047-.079.071l-.03.028-3.674,3.674a2.816,2.816,0,0,1-3.978,0l-6.48-6.48a3.039,3.039,0,0,1-.911-1.984,2.183,2.183,0,0,1,.6-1.685l2.315-2.315.107,0h0a6.171,6.171,0,0,0,4.392-1.82,6.219,6.219,0,0,0,1.39-6.654,6.177,6.177,0,0,0,3.1-1.683,6.182,6.182,0,0,0,1.753-3.508,6.226,6.226,0,0,0,1.551.2h0a6.173,6.173,0,0,0,4.392-1.819,6.172,6.172,0,0,0,1.82-4.392,6.28,6.28,0,0,0-.194-1.549,6.157,6.157,0,0,0,3.505-1.757,6.218,6.218,0,0,0,0-8.784l-1.439-1.438,1.323-1.323a2.862,2.862,0,0,1,4.043,0,2.84,2.84,0,0,1,.837,2.022,2.843,2.843,0,0,1-.837,2.022,1.672,1.672,0,0,0-.491,1.185,1.671,1.671,0,0,0,.491,1.185,1.676,1.676,0,0,0,2.371,0,2.862,2.862,0,0,1,4.044,0,2.862,2.862,0,0,1,0,4.044,1.672,1.672,0,0,0-.491,1.185,1.668,1.668,0,0,0,.491,1.185,1.675,1.675,0,0,0,2.371,0,2.846,2.846,0,0,1,2.023-.838,2.84,2.84,0,0,1,2.021.837,2.841,2.841,0,0,1,.838,2.022,2.839,2.839,0,0,1-.816,2l-.023.023-2.4,2.4a1.676,1.676,0,0,0-.136,2.217l.086.11a1.677,1.677,0,0,0,2.18.408,2.856,2.856,0,0,1,3.483.436,2.863,2.863,0,0,1,0,4.044l-3.847,3.847-.022.023-8.259,8.259A16.526,16.526,0,0,1,908.961-287.785Zm24.887-5.741c.735.735.451,2.31-.608,3.37l-6.48,6.48a2.816,2.816,0,0,1-3.978,0L921-285.46a19.827,19.827,0,0,0,6.241-4.217l5.229-5.229Z" transform="translate(-885.267 334.859)" fill="#fff"/></g><path d="M12.054,53.553l-6.48-6.48a6.379,6.379,0,0,1-1.888-4.183,5.49,5.49,0,0,1,1.58-4.226L6.4,37.529a6.353,6.353,0,0,1-.734-.628l-.016-.016-3.83-3.83L1.8,33.035A6.216,6.216,0,0,1,4.405,22.713a6.213,6.213,0,0,1,5.01-9.886c.07,0,.139,0,.211.005a6.2,6.2,0,0,1,6.2-6.419c.07,0,.14,0,.211.005a6.208,6.208,0,0,1,10.6-4.6l1.322,1.322,1.322-1.323a6.212,6.212,0,0,1,10.6,4.393c0,.069,0,.14,0,.208a6.212,6.212,0,0,1,5.608,3.139l-2.719,4.052A2.859,2.859,0,0,0,38.066,10.6a1.676,1.676,0,1,1-2.371-2.371A2.859,2.859,0,1,0,31.652,4.19L30.329,5.513l1.439,1.438a6.213,6.213,0,0,1-3.506,10.541,6.241,6.241,0,0,1,.194,1.548,6.217,6.217,0,0,1-7.763,6.016,6.2,6.2,0,0,1-4.852,5.191,6.21,6.21,0,0,1-5.783,8.473l-.106,0L7.637,41.034a2.182,2.182,0,0,0-.6,1.685A3.04,3.04,0,0,0,7.944,44.7l6.481,6.479a2.812,2.812,0,0,0,2.638.747l-2.172,3.237A6.124,6.124,0,0,1,12.054,53.553ZM4.188,26.639a2.862,2.862,0,0,0,0,4.041l.019.02,3.83,3.829.014.014a2.84,2.84,0,0,0,1.564.79l.031,0a2.763,2.763,0,0,0,.415.031,2.859,2.859,0,0,0,2.021-4.882L8.231,26.639a2.857,2.857,0,0,0-4.043,0ZM7.4,17.017a2.859,2.859,0,0,0,0,4.044l.016.017,5.095,5.095.021.02a2.859,2.859,0,0,0,4.048-4.038l-5.137-5.136a2.859,2.859,0,0,0-4.042,0ZM13.808,10.6a2.862,2.862,0,0,0-.007,4.036l.007.007h0l5.133,5.131,0,.005L20.2,21.041l.021.02a2.859,2.859,0,1,0,4.042-4.044l-1.274-1.273-.01-.011-5.125-5.125-.006-.005h0a2.859,2.859,0,0,0-4.042,0ZM20.222,4.19a2.864,2.864,0,0,0-.012,4.033l.014.013,5.127,5.127,0,0a2.838,2.838,0,0,0,2.021.837h0A2.859,2.859,0,0,0,29.4,9.32L24.266,4.19a2.86,2.86,0,0,0-4.044,0ZM41.972,14.8l-.134.2A1.666,1.666,0,0,1,41.972,14.8Z" transform="translate(0 0)" fill="#fac913"/></g></g></g></svg>