<svg id="Layer_1" data-name="Layer 1" xmlns="http://www.w3.org/2000/svg" viewBox="0 0 722 77.62"><defs><style>.cls-1{fill:#231f20;}.cls-2{fill:#99c93f;}</style></defs><title>DRA Global Group Company</title><path class="cls-1" d="M22.4,19.84h8.74l7.45,38.68H31.33L29.9,50H23.79l-1.48,8.5h-7.4Zm6.73,25.31L26.79,29.58,24.5,45.15Z"/><path class="cls-1" d="M275.94,45.72V32.78c0-8.26,2.62-13.41,11.32-13.41,8.3,0,11,4.39,11,11.31v2.25h-7.64V30.21c0-3-.24-5.21-3.3-5.21S284,27.72,284,30.59V47.78c0,3.2.62,5.63,3.63,5.63s3.72-2.53,3.72-5.87V43.43h-3.77V38.66h10.89V58.52h-5.16l-.52-3.44a6.35,6.35,0,0,1-6.35,4c-7.88,0-10.46-5.3-10.46-13.38"/><rect class="cls-1" x="303.73" y="19.84" width="7.16" height="38.68"/><path class="cls-1" d="M315.42,49.69V39.76c0-6.07,3.35-9.32,9.32-9.32s9.31,3.25,9.31,9.32v9.93c0,6.06-3.39,9.31-9.31,9.31s-9.32-3.25-9.32-9.31m11.51.52V39.28c0-2.34-.33-4-2.15-4s-2.24,1.67-2.24,4V50.21c0,2.3.38,3.92,2.24,3.92s2.15-1.62,2.15-3.92"/><path class="cls-1" d="M345.7,56.47v2.05h-7.21V19.84h7.21V33a8.75,8.75,0,0,1,5.87-2.54c4.49,0,6,4.4,6,8.65V49.88c0,5.25-2,9.12-6.21,9.12a8.82,8.82,0,0,1-5.63-2.53m4.63-6.3V38.61c0-2-.48-3.63-2.1-3.63A4.14,4.14,0,0,0,345.7,36V53.32a4.23,4.23,0,0,0,2.48.86c1.72,0,2.15-1.77,2.15-4"/><path class="cls-1" d="M361.31,52.31c0-6.87,5.92-9,11.27-10.93V38.8c0-1.81-.34-3-1.87-3s-1.91,1.1-2,2.58l-.15,1.91L361.78,40c.24-6.54,3.3-9.55,9.56-9.55,5.58,0,8.16,3.39,8.16,8.41V51.69a47.42,47.42,0,0,0,.48,6.83h-6.45c-.19-1.38-.52-3.39-.62-4-.67,2.29-2.43,4.44-5.35,4.44-4,0-6.25-3.44-6.25-6.69m11.27,0V44.72c-2.68,1.53-4.64,3.2-4.64,6.07,0,2,.82,3.1,2.2,3.1a3.25,3.25,0,0,0,2.44-1.58"/><rect class="cls-1" x="384.61" y="19.84" width="7.16" height="38.68"/><path class="cls-1" d="M408.67,45.72V32.78c0-8.26,2.63-13.41,11.32-13.41,8.31,0,11,4.39,11,11.31v2.25h-7.64V30.21c0-3-.24-5.21-3.3-5.21s-3.39,2.72-3.39,5.59V47.78c0,3.2.62,5.63,3.63,5.63s3.73-2.53,3.73-5.87V43.43h-3.78V38.66h10.89V58.52H426l-.53-3.44a6.34,6.34,0,0,1-6.35,4c-7.88,0-10.46-5.3-10.46-13.38"/><path class="cls-1" d="M436.22,30.92h7.21v4.44c1.81-3.2,3.49-4.77,6-4.77a9.42,9.42,0,0,1,1.1.09V38a6.16,6.16,0,0,0-2.58-.58,5.4,5.4,0,0,0-4.49,2.68V58.52h-7.21Z"/><path class="cls-1" d="M453.22,49.69V39.76c0-6.07,3.34-9.32,9.31-9.32s9.31,3.25,9.31,9.32v9.93c0,6.06-3.39,9.31-9.31,9.31s-9.31-3.25-9.31-9.31m11.5.52V39.28c0-2.34-.33-4-2.14-4s-2.25,1.67-2.25,4V50.21c0,2.3.38,3.92,2.25,3.92s2.14-1.62,2.14-3.92"/><path class="cls-1" d="M476,52.7V30.92h7.21V51.69c0,1.44.43,2.3,1.77,2.3a4.9,4.9,0,0,0,2.53-1.05v-22h7.21v27.6H487.5V55.94A9.83,9.83,0,0,1,480.91,59c-3.34,0-4.92-2.82-4.92-6.3"/><path class="cls-1" d="M499.68,30.92h7.16V33a8.75,8.75,0,0,1,5.87-2.54c4.49,0,6,4.4,6,8.65V49.88c0,5.25-2,9.12-6.21,9.12a8.75,8.75,0,0,1-5.63-2.58V67.6h-7.16Zm11.79,19.25V38.61c0-2-.53-3.63-2.15-3.63A4.12,4.12,0,0,0,506.84,36V53.36a4.59,4.59,0,0,0,2.43.82c1.72,0,2.2-1.77,2.2-4"/><path class="cls-1" d="M535,46.15V32.31c0-8,2.62-12.94,11.32-12.94,8.3,0,10.84,4.48,10.84,11.17v3.25h-7.64V30.21c0-2.73-.1-5.21-3.16-5.21s-3.39,2.58-3.39,5.44V48c0,3.29.63,5.39,3.39,5.39,3,0,3.16-2.58,3.16-5.39V44.24h7.64v3.2c0,6.74-2.39,11.61-10.84,11.61-8.7,0-11.32-5.16-11.32-12.9"/><path class="cls-1" d="M560.93,49.69V39.76c0-6.07,3.34-9.32,9.32-9.32s9.31,3.25,9.31,9.32v9.93c0,6.06-3.39,9.31-9.31,9.31s-9.32-3.25-9.32-9.31m11.51.52V39.28c0-2.34-.33-4-2.15-4s-2.24,1.67-2.24,4V50.21c0,2.3.38,3.92,2.24,3.92s2.15-1.62,2.15-3.92"/><path class="cls-1" d="M584,30.92h7v2.29a8.81,8.81,0,0,1,6.49-2.81,4.71,4.71,0,0,1,4.68,3.34,9,9,0,0,1,7-3.34c3.1,0,5.2,2.34,5.2,6.63V58.52h-7V37.75c0-1.82-.62-2.43-1.81-2.43a5,5,0,0,0-2.92,1.28V58.52h-7V37.75c0-1.82-.62-2.43-1.81-2.43A5,5,0,0,0,591,36.6V58.52h-7Z"/><path class="cls-1" d="M619.18,30.92h7.17V33a8.75,8.75,0,0,1,5.87-2.54c4.49,0,6,4.4,6,8.65V49.88c0,5.25-2,9.12-6.21,9.12a8.72,8.72,0,0,1-5.63-2.58V67.6h-7.17ZM631,50.17V38.61c0-2-.53-3.63-2.15-3.63A4.12,4.12,0,0,0,626.35,36V53.36a4.59,4.59,0,0,0,2.43.82c1.72,0,2.2-1.77,2.2-4"/><path class="cls-1" d="M642,52.31c0-6.87,5.92-9,11.27-10.93V38.8c0-1.81-.34-3-1.86-3s-1.91,1.1-2,2.58l-.14,1.91L642.44,40c.24-6.54,3.29-9.55,9.55-9.55,5.58,0,8.16,3.39,8.16,8.41V51.69a47.42,47.42,0,0,0,.48,6.83h-6.45c-.19-1.38-.52-3.39-.62-4-.67,2.29-2.43,4.44-5.35,4.44-4,0-6.25-3.44-6.25-6.69m11.27,0V44.72c-2.68,1.53-4.64,3.2-4.64,6.07,0,2,.82,3.1,2.2,3.1a3.25,3.25,0,0,0,2.44-1.58"/><path class="cls-1" d="M664.92,30.92h7.17v2.77c2-2,4.2-3.25,6.68-3.25,3.34,0,4.92,2.82,4.92,6.31V58.52h-7.21V37.89c0-1.43-.38-2.24-1.67-2.24a5.1,5.1,0,0,0-2.72,1.15V58.52h-7.17Z"/><path class="cls-1" d="M688.94,61.24c3.1,0,4.58-.47,4.58-2.29a25.27,25.27,0,0,0-1-4.73l-6.3-23.3h6.87l3.49,16.95,2.87-16.95h6.87l-6.4,28.46c-1.19,5.35-4.53,6.93-9.45,6.93h-1.53Z"/><polygon class="cls-2" points="73 58.58 105.73 19.13 110.22 6.29 52.66 58.58 73 58.58"/><polygon class="cls-2" points="91.2 58.58 105.73 19.13 76.8 58.58 91.2 58.58"/><polygon class="cls-2" points="105.74 58.58 105.73 19.13 94.83 58.58 105.74 58.58"/><path class="cls-1" d="M261.82,58.58v-.21l-13-23.52c-5.34-10-8.31-15.55-8.53-15.7H225.19l-.07.08L208.66,49.34l8.64,8.85,15.32-28.52q.45.6,7.52,13.86v.08H229.49L225,51.87l.09.16h19.46l.46.55c2.1,4.06,3.23,6,3.41,6Zm-58.22,0h8.81"/><path class="cls-1" d="M158.24,50.31v-23a7.46,7.46,0,0,0-.47-2.59q-2-5.55-7.27-5.55H109.73l-.19.19v39l.19.21h40.85a9,9,0,0,0,4.33-1.5,8.6,8.6,0,0,0,3.33-6.77m-9.85-4.83a5,5,0,0,1-1.85,3.87,4.77,4.77,0,0,1-2.42.74H121.37l-.11-.11V27.8l.11-.11h22.71q2.94,0,4,3.17a4.39,4.39,0,0,1,.26,1.48Z"/><path class="cls-1" d="M212.32,58.5,197.25,43.07h5.92a7.73,7.73,0,0,0,4.15-1.21A8.26,8.26,0,0,0,210.85,35V27.26a6.58,6.58,0,0,0-.38-2.24q-1.87-5.86-7.38-5.87h-40.9l-.19.19v39l.14.21h11l.21-.21V27.93l.07-.12h26.2s1.69,0,1.69,3.68c0,3.32-1.37,3.64-1.64,3.67H177.08v3l20.54,20.45h14.7Z"/></svg>