<svg xmlns="http://www.w3.org/2000/svg" width="47.495" height="47.515" viewBox="0 0 47.495 47.515"><defs><style>.a{fill:#fff;}.b{fill:#fac913;}</style></defs><g transform="translate(-703 -1831.981)"><g transform="translate(703 1832)"><g transform="translate(11.688 41.651)"><path class="a" d="M126.928,449a.928.928,0,1,0,.928.928A.928.928,0,0,0,126.928,449Z" transform="translate(-126 -449)"/></g><g transform="translate(15.399 41.651)"><path class="a" d="M176.2,449h-9.276a.928.928,0,1,0,0,1.855H176.2a.928.928,0,1,0,0-1.855Z" transform="translate(-166 -449)"/></g><g transform="translate(0 0)"><path class="a" d="M47.5,12.055a.932.932,0,0,0-.6-.862L20.924.674A2.763,2.763,0,0,0,19.109,0a2.8,2.8,0,0,0-2.366,1.32L.444,11.268A.936.936,0,0,0,0,12.059V15.77a.928.928,0,0,0,.928.928h.928v4.638a.928.928,0,0,0,.928.928h7.978a.928.928,0,0,0,.928-.928V16.7h1.855V37.941H10.761a2.786,2.786,0,0,0-2.783,2.783v5.844a.928.928,0,0,0,.928.928H29.314a.928.928,0,0,0,.928-.928V40.724a2.786,2.786,0,0,0-2.783-2.783H24.675V16.7H38.219v3.776a.928.928,0,0,0,.272.656l1.584,1.584v5.554a2.783,2.783,0,1,0,3.446,3.81.928.928,0,0,0-1.678-.791A.928.928,0,1,1,41,29.963a.928.928,0,0,0,.928-.928V22.713l1.584-1.584a.928.928,0,0,0,.272-.656V16.7h2.783a.928.928,0,0,0,.928-.928V12.059S47.5,12.057,47.5,12.055ZM18.182,2.783a.928.928,0,1,1,1.855,0V9.276H18.182Zm-.928,8.349H22.82v6.34l-6.155-6.34Zm-.589,19.11H22.82v6.34Zm4.889,7.7H15.4V31.6ZM15.4,28.386v-6.34l6.155,6.34Zm1.266-7.7H22.82v6.34ZM15.4,18.831v-6.34l6.155,6.34Zm.928-15.083V9.276h-1.9l-.036,0-.028,0h-.013L5.2,10.538ZM9.833,20.408H3.711V16.7H9.833ZM1.855,14.842V12.869l11.688-1.6v3.575ZM27.458,39.8a.929.929,0,0,1,.928.928V45.64H9.833V40.724a.929.929,0,0,1,.928-.928ZM23.823,9.28h-.036l-.039,0H21.892V3.068L40.6,10.643ZM41.93,20.089,41,21.017l-.928-.928V16.7H41.93Zm3.711-5.247H24.675V11.21l20.965,1.7Z" transform="translate(0 0)"/></g></g><path class="b" d="M8.02,40.432a2.784,2.784,0,0,1,2.8-2.763h1.122L10.681,39.52a.927.927,0,0,0-.8.911v.262L8.02,43.438Zm5.595-23.854H11.749v4.606a.927.927,0,0,1-.933.921H2.8a.927.927,0,0,1-.933-.921V16.577H.933A.926.926,0,0,1,0,15.657V11.973a.925.925,0,0,1,.447-.785L16.832,1.311a2.815,2.815,0,0,1,4.2-.642L33.644,5.713,32.582,7.276,22.006,3.046V9.21h1.941l6.94.557L29.7,11.523,24.8,11.13v3.606h2.711l-1.251,1.841H24.8v2.15l-1.865,2.746v-.935H16.752l4.034,4.1-1.062,1.564-4.246-4.318v6.294h2.9l-1.251,1.842h-.379l.224.228-1.062,1.564-.435-.442v1.083L13.615,35.2ZM3.729,20.262H9.884V16.577H3.729ZM15.479,18.7h6.188l-6.188-6.3Zm7.46-1.35v-6.3H16.752ZM1.865,12.776v1.96H13.615V11.187Zm3.364-2.314L14.42,9.218h.013l.029,0,.036,0h1.914V3.721Zm13.048-7.7V9.21h1.865V2.763a.933.933,0,0,0-1.865,0Z" transform="translate(703 1831.981)"/></g></svg>