<svg xmlns="http://www.w3.org/2000/svg" width="167" height="167" viewBox="0 0 167 167"><defs><style>.a{fill:none;stroke-width:3px;}.a,.b{stroke:#fff;}.b{fill:#fff;}.b,.c{stroke-width:0.5px;}.c{fill:#fac913;stroke:#fac913;}</style></defs><g transform="translate(-430.5 -909.5)"><circle class="a" cx="82" cy="82" r="82" transform="translate(432 911)"/><path class="b" d="M77.682,20.576C74.619,11.83,60.94,5.268,44.151,4.122V3.944A3.948,3.948,0,0,0,40.207,0H37.578a3.948,3.948,0,0,0-3.944,3.944v.178C16.785,5.272,3.068,11.878.07,20.671a1.315,1.315,0,0,0,1.785,1.623c8.047-3.632,19.418-5.906,31.778-6.41v6.466a1.315,1.315,0,0,0,1.315,1.315V46.719a5.26,5.26,0,0,0-2.629,4.551V73.619a5.264,5.264,0,0,0,5.258,5.258h2.629a5.264,5.264,0,0,0,5.258-5.258V51.27a5.261,5.261,0,0,0-2.629-4.551V23.663a1.315,1.315,0,0,0,1.315-1.315V15.883c12.361.5,23.732,2.778,31.778,6.41a1.313,1.313,0,0,0,.541.116h.011a1.315,1.315,0,0,0,1.2-1.833ZM36.263,3.944a1.316,1.316,0,0,1,1.315-1.315h2.629a1.316,1.316,0,0,1,1.315,1.315v.045q-1.3-.044-2.629-.045t-2.629.045Zm6.573,69.675a2.632,2.632,0,0,1-2.629,2.629H37.578a2.632,2.632,0,0,1-2.629-2.629V51.27a2.632,2.632,0,0,1,2.629-2.629h2.629a2.632,2.632,0,0,1,2.629,2.629ZM40.207,46.012H37.578V23.663h2.629Zm1.315-24.978H36.263V15.8q1.309-.027,2.629-.027t2.629.027Zm-2.629-7.888c-13.053,0-25.455,1.934-34.724,5.364,2.1-2.853,5.719-5.446,10.529-7.5,6.722-2.864,15.315-4.441,24.2-4.441s17.473,1.577,24.2,4.441c4.81,2.049,8.429,4.643,10.529,7.5C64.347,15.081,51.945,13.146,38.892,13.146Z" transform="translate(461.5 995.505) rotate(-45)"/><path class="c" d="M813.235,85.1c-4.1-8.338.931-22.708,12.031-35.435l-.126-.126a3.948,3.948,0,0,1,0-5.577L827,42.1a3.947,3.947,0,0,1,5.577,0l.126.126c12.682-11.062,26.995-16.094,35.345-12.075a1.316,1.316,0,0,1,.447,2.146l-.008.008a1.323,1.323,0,0,1-.464.3c-8.258,3.122-17.906,9.554-27,17.938l4.572,4.572a1.316,1.316,0,0,1,0,1.859l7.933,7.933-1.493,2.226-8.3-8.3-1.859,1.859,8.665,8.665-1.493,2.226-9.031-9.032a1.316,1.316,0,0,1-1.859,0l-4.572-4.572c-8.384,9.1-14.816,18.745-17.938,27a1.316,1.316,0,0,1-1.167.849h-.061A1.316,1.316,0,0,1,813.235,85.1Zm37.732-51.388C844.188,36.437,837,41.4,830.717,47.678s-11.24,13.471-13.968,20.249c-1.952,4.85-2.678,9.243-2.145,12.745,4.129-8.978,11.531-19.116,20.761-28.346s19.367-16.631,28.346-20.76a15.6,15.6,0,0,0-2.347-.17A28.493,28.493,0,0,0,850.966,33.709ZM837.224,54.185q-.933.934-1.84,1.878l3.7,3.7,3.718-3.718-3.7-3.7Q838.159,53.251,837.224,54.185ZM828.858,43.96,827,45.818a1.316,1.316,0,0,0,0,1.859l.031.031q.891-.953,1.827-1.891t1.891-1.827l-.031-.031a1.316,1.316,0,0,0-1.859,0Z" transform="translate(-337.068 924.974)"/></g></svg>