<svg xmlns="http://www.w3.org/2000/svg" width="167" height="167" viewBox="0 0 167 167"><defs><style>.a{fill:#fff;}.a,.b{stroke:#fff;}.a,.c{stroke-width:0.5px;}.b{fill:none;stroke-width:3px;}.c{fill:#fac913;stroke:#fac913;}</style></defs><g transform="translate(-876 -1552)"><g transform="translate(928 1595)"><path class="a" d="M52.636,58.275c13.426,0,20.82-7.887,20.82-22.208C73.457,22.658,54.477,1.34,53.669.44A1.431,1.431,0,0,0,51.6.44c-.808.9-19.788,22.218-19.788,35.626C31.816,50.388,39.21,58.275,52.636,58.275Zm0-54.791C56.61,8.148,70.681,25.408,70.681,36.067c0,8.865-3.131,19.432-18.044,19.432S34.592,44.932,34.592,36.067C34.592,25.408,48.662,8.148,52.636,3.484Z" transform="translate(-31.816)"/><path class="a" d="M315.813,179.792c7.939,0,12.492-5.3,12.492-14.538,0-8.677-11.009-20.6-11.476-21.108a1.43,1.43,0,0,0-2.032,0c-.468.5-11.476,12.431-11.476,21.108C303.321,174.494,307.874,179.792,315.813,179.792Zm0-32.605c2.677,3.115,9.716,11.893,9.716,18.067,0,7.8-3.269,11.762-9.716,11.762s-9.716-3.957-9.716-11.762C306.1,159.08,313.135,150.3,315.813,147.187Z" transform="translate(-256.128 -118.74)"/><path class="a" d="M216.171,319.861c-.354.4-8.675,9.905-8.675,16.187,0,7.057,3.542,11.1,9.716,11.1s9.716-4.048,9.716-11.1c0-6.282-8.321-15.786-8.675-16.187a1.433,1.433,0,0,0-2.082,0Zm1.041,24.515c-4.6,0-6.94-2.8-6.94-8.328,0-3.773,4.343-9.915,6.94-13.115,2.6,3.193,6.94,9.336,6.94,13.115C224.152,341.574,221.816,344.376,217.212,344.376Z" transform="translate(-176.959 -263.893)"/><path class="a" d="M75.015,204.541a1.36,1.36,0,0,0,.139.007,1.388,1.388,0,0,0,.139-2.769,10.17,10.17,0,0,1-7.417-3.787c-3.692-4.813-2.469-12.573-2.458-12.65a1.388,1.388,0,0,0-2.737-.455c-.062.367-1.438,9,2.983,14.782A12.828,12.828,0,0,0,75.015,204.541Z" transform="translate(-57.11 -151.824)"/><path class="a" d="M360.607,266.667a9.664,9.664,0,0,0,6.789-2.924,8.3,8.3,0,0,0,1.52-7.021,1.388,1.388,0,0,0-2.737.458,5.694,5.694,0,0,1-.891,4.756,6.91,6.91,0,0,1-4.681,1.955,1.388,1.388,0,1,0,0,2.776Z" transform="translate(-302.31 -211.168)"/><path class="a" d="M241.046,411.437a1.592,1.592,0,0,1-.766-2.3,1.389,1.389,0,0,0-2.485-1.241,4.368,4.368,0,0,0,2.01,6.034,1.389,1.389,0,1,0,1.241-2.485Z" transform="translate(-201.561 -336.359)"/></g><circle class="b" cx="82" cy="82" r="82" transform="translate(877.5 1553.5)"/><path class="c" d="M825.069,50.092c0-13.408,18.98-34.727,19.787-35.627a1.432,1.432,0,0,1,2.065,0c.73.813,16.281,18.28,19.287,31.533l-2.293,3.418c-.565-10.7-14.135-27.341-18.026-31.907-3.974,4.664-18.044,21.924-18.044,32.583,0,8.865,3.131,19.433,18.044,19.433a25.746,25.746,0,0,0,4.82-.425l-2.068,3.083q-1.33.117-2.752.117C832.463,72.3,825.069,64.414,825.069,50.092Zm17.906,16.65a12.829,12.829,0,0,1-9.351-4.873c-4.421-5.78-3.045-14.415-2.983-14.783a1.388,1.388,0,0,1,2.737.455c-.011.077-1.234,7.837,2.458,12.65a10.171,10.171,0,0,0,7.417,3.786,1.388,1.388,0,0,1-.14,2.769C843.066,66.749,843.02,66.747,842.974,66.742Z" transform="translate(102.932 1580.974)"/></g></svg>