<svg xmlns="http://www.w3.org/2000/svg" width="39.844" height="47.642" viewBox="0 0 39.844 47.642"><defs><style>.a{fill:#fff;}.b{fill:#fac913;}</style></defs><g transform="translate(-1178 -1832)"><g transform="translate(1178 1832)"><g transform="translate(0)"><path class="a" d="M80.75,15.406,67.8,11.706V5.24h8.217V6.728H74.792a.7.7,0,0,0-.7.7V10.31a.7.7,0,0,0,.7.7h3.845a.7.7,0,0,0,.7-.7V7.426a.7.7,0,0,0-.7-.7H77.411V5.24h3.148a.7.7,0,0,0,.192-1.368L67.31.032h0l-.014,0-.016,0-.045-.01L67.2.008l-.033,0-.046,0H55.551L55.5,0l-.032,0-.035.005-.044.01-.017,0-.014,0h0L41.918,3.872A.7.7,0,0,0,42.11,5.24h3.148V6.728H44.033a.7.7,0,0,0-.7.7V10.31a.7.7,0,0,0,.7.7h3.845a.7.7,0,0,0,.7-.7V7.426a.7.7,0,0,0-.7-.7H46.652V5.24H54.87v6.466l-12.951,3.7a.7.7,0,0,0,.192,1.368h3.148v1.489H44.033a.7.7,0,0,0-.7.7v2.884a.7.7,0,0,0,.7.7h3.845a.7.7,0,0,0,.7-.7V18.961a.7.7,0,0,0-.7-.7H46.652V16.774H54.87v6.895l-2.852,9.983h0l-.006.019h0v.007l-2.736,9.574h-1.4a.7.7,0,0,0-.7.7v2.186H45.755a.7.7,0,0,0,0,1.395H76.914a.7.7,0,0,0,0-1.395H75.489V43.952a.7.7,0,0,0-.7-.7H73.4L70.66,33.681v0l-.006-.022v0L67.8,23.669V16.774h8.217v1.489H74.792a.7.7,0,0,0-.7.7v2.884a.7.7,0,0,0,.7.7h3.845a.7.7,0,0,0,.7-.7V18.961a.7.7,0,0,0-.7-.7H77.411V16.774h3.148a.7.7,0,0,0,.191-1.368ZM77.939,8.123V9.612h-2.45V8.123ZM67.8,1.622l7.78,2.223H67.8V1.622ZM47.18,8.123V9.612H44.73V8.123Zm0,11.535v1.489H44.73V19.658ZM56.265,1.395H66.4v2.45H56.265ZM66.4,5.24v5.689L57.87,5.24Zm-10.14.606L64.8,11.535H56.265V5.845Zm0,7.084H66.4v2.45H56.265ZM54.9,33.162l6.439-4.507,6.439,4.507Zm12.135,1.395-5.7,2.848-5.7-2.848ZM57.78,24.464h7.11l-3.555,2.488Zm8.625-7.69v5.689L57.87,16.774Zm-10.14.606L64.8,23.069H56.265ZM47.09,3.845l7.78-2.223V3.845Zm0,11.535,7.78-2.223V15.38Zm8.879,9.52,4.149,2.9-6.224,4.357Zm-2.846,9.96,6.652,3.326L50.906,42.62ZM72.869,44.65h1.226v1.489H48.575V44.65h7.811a.7.7,0,0,0,0-1.395H52.754l8.581-4.29,8.581,4.29H59.495a.7.7,0,0,0,0,1.395H72.869Zm-1.106-2.03-8.869-4.435,6.652-3.326ZM68.775,32.161,62.551,27.8,66.7,24.9ZM67.8,15.38V13.157l7.78,2.223Zm10.14,4.278v1.489h-2.45V19.658Z" transform="translate(-41.413)"/></g></g><path class="b" d="M6.466,47.642H4.343a.7.7,0,0,1,0-1.4H5.768V44.052a.7.7,0,0,1,.7-.7h1.4l2.736-9.6a0,0,0,0,0,0,0v0h0l.005-.019v0L13.46,23.723v-6.91H5.241V18.3H6.466a.7.7,0,0,1,.7.7v2.891a.7.7,0,0,1-.7.7H2.62a.7.7,0,0,1-.7-.7V19a.7.7,0,0,1,.7-.7H3.846V16.813H.7a.7.7,0,0,1-.191-1.371L13.46,11.733V5.252H5.241V6.744H6.466a.7.7,0,0,1,.7.7v2.891a.7.7,0,0,1-.7.7H2.62a.7.7,0,0,1-.7-.7V7.443a.7.7,0,0,1,.7-.7H3.846V5.252H.7A.7.7,0,0,1,.506,3.88L13.95.031h0l.014,0,.017,0a.349.349,0,0,1,.044-.01l.035-.006.032,0,.047,0h11.57l.046,0,.033.005.033.005.045.01.017,0,.014,0h0l11.949,3.42-1.2,1.8h-.64v.956L34.712,8.142h-.628V9.08l-1.178,1.76a.7.7,0,0,1-.217-.506V7.443a.7.7,0,0,1,.7-.7h1.225V5.252H26.392v6.481l4.964,1.421-.817,1.22-4.148-1.187v2.227h3.451l-.936,1.4H26.392v3.756l-4.565,6.818-.685.48.247.173L20.612,29.2l-.686-.481-6.44,4.517H17.91l-.936,1.4H14.228l2.057,1.031-.784,1.17-3.788-1.9L9.5,42.716l3.114-1.56L10.2,44.751H7.164v1.493H9.2l-.936,1.4Zm6.019-15.408,6.226-4.367-4.151-2.911Zm7.442-5.22,3.556-2.494H16.37Zm-5.071-3.893h8.536l-8.536-5.7ZM25,22.515v-5.7H16.462Zm-21.68-1.32H5.768V19.7H3.318Zm11.537-5.779H25V12.959H14.855Zm-9.177,0H13.46V13.187Zm9.177-3.853h8.536l-8.536-5.7ZM25,10.954v-5.7H16.462ZM3.318,9.635H5.768V8.142H3.318ZM26.392,3.853h7.782L26.392,1.626Zm-11.537,0H25V1.4H14.855Zm-9.177,0H13.46V1.626Z" transform="translate(1178 1832)"/></g></svg>