<svg xmlns="http://www.w3.org/2000/svg" width="49.064" height="52.88" viewBox="0 0 49.064 52.88"><defs><style>.a{fill:#fff;}.b{fill:#fac913;}</style></defs><g transform="translate(-940 -1831.745)"><g transform="translate(940 1832.024)"><g transform="translate(0 0)"><g transform="translate(0 0)"><path class="a" d="M64.632,22.9a.876.876,0,0,0-.869-.011l-2.411,1.34L60.683.852A.876.876,0,0,0,59.807,0H53.674A.876.876,0,0,0,52.8.852l-.817,28.587-2.688,1.489V23.656a.876.876,0,0,0-1.3-.766L33.523,30.928V23.656a.876.876,0,0,0-1.3-.766L16.451,31.652a.876.876,0,0,0-.451.766V51.692a.876.876,0,0,0,.876.876H64.188a.876.876,0,0,0,.876-.876V23.656A.876.876,0,0,0,64.632,22.9ZM54.526,1.752h4.43L59.006,3.5H54.476Zm-.1,3.5h4.631l.569,19.931-5.864,3.257ZM39.656,50.816H34.4V46.436h5.257Zm7.009,0H41.408V46.436h5.257Zm16.647,0H48.417V45.559a.876.876,0,0,0-.876-.876H33.523a.876.876,0,0,0-.876.876v5.257H17.752V32.933l14.018-7.788v7.272a.876.876,0,0,0,1.3.766l14.469-8.038v7.272a.876.876,0,0,0,1.3.766l8.263-4.59,3.841-2.133,2.366-1.314Z" transform="translate(-16 0)"/></g></g><g transform="translate(4.381 35.046)"><path class="a" d="M63.885,320H56.876a.876.876,0,0,0-.876.876v3.5a.876.876,0,0,0,.876.876h7.009a.876.876,0,0,0,.876-.876v-3.5A.876.876,0,0,0,63.885,320Zm-.876,3.5H57.752v-1.752h5.257Z" transform="translate(-56 -320)"/></g><g transform="translate(20.151 35.046)"><g transform="translate(0)"><path class="a" d="M207.885,320h-7.009a.876.876,0,0,0-.876.876v3.5a.876.876,0,0,0,.876.876h7.009a.876.876,0,0,0,.876-.876v-3.5A.876.876,0,0,0,207.885,320Zm-.876,3.5h-5.257v-1.752h5.257Z" transform="translate(-200 -320)"/></g></g><g transform="translate(35.922 35.046)"><path class="a" d="M351.885,320h-7.009a.876.876,0,0,0-.876.876v3.5a.876.876,0,0,0,.876.876h7.009a.876.876,0,0,0,.876-.876v-3.5A.876.876,0,0,0,351.885,320Zm-.876,3.5h-5.257v-1.752h5.257Z" transform="translate(-344 -320)"/></g></g><path class="b" d="M.873,52.88A.877.877,0,0,1,0,52V32.609a.883.883,0,0,1,.45-.77l15.708-8.813a.861.861,0,0,1,.423-.111.877.877,0,0,1,.873.882V31.11l14.413-8.085a.853.853,0,0,1,.422-.111.877.877,0,0,1,.873.882v.641l-1.745,2.627v-1.77L17,33.38a.865.865,0,0,1-.422.11.879.879,0,0,1-.874-.88V25.294L1.745,33.128V51.116H15.439L14.268,52.88Zm15.708-7.051a.877.877,0,0,1,.873-.882h2.084L18.366,46.71h-.039v.059L16.581,49.4Zm4.364-5.288a.877.877,0,0,1-.873-.882V36.135a.877.877,0,0,1,.873-.882h5.032l-1.171,1.762h-2.99v1.763h1.818l-1.171,1.762Zm-15.709,0a.877.877,0,0,1-.873-.882V36.135a.877.877,0,0,1,.873-.882h6.981a.877.877,0,0,1,.873.882v3.524a.877.877,0,0,1-.873.882Zm.872-1.762h5.237V37.015H6.108ZM36.653.856A.878.878,0,0,1,37.526,0h6.109a.876.876,0,0,1,.872.856l.177,6.236-1.674,2.52-.122-4.325H38.274l-.339,11.965L36.112,20Zm1.671,2.669h4.513l-.051-1.763H38.374Z" transform="translate(940.22 1831.745)"/></g></svg>