<svg xmlns="http://www.w3.org/2000/svg" xmlns:xlink="http://www.w3.org/1999/xlink" width="130" height="130" viewBox="0 0 130 130"><defs><clipPath id="b"><rect width="130" height="130"/></clipPath></defs><g id="a" clip-path="url(#b)"><rect width="130" height="130" fill="#f6f6f6"/><ellipse cx="65" cy="65" rx="65" ry="65" fill="#213b71"/><g transform="translate(19402 2463)"><g transform="translate(-19360.934 -2428.573)"><g transform="translate(0 0)"><g transform="translate(0 0)"><path d="M64.44,23.036a.865.865,0,0,0-.866-.011l-2.4,1.348L60.507.857A.877.877,0,0,0,59.634,0H53.526a.877.877,0,0,0-.873.857L51.84,29.612l-2.677,1.5V23.8a.877.877,0,0,0-.873-.881.866.866,0,0,0-.423.111L33.454,31.111V23.8a.877.877,0,0,0-.873-.881.866.866,0,0,0-.423.111L16.449,31.839a.883.883,0,0,0-.449.77V52a.877.877,0,0,0,.873.881H64A.877.877,0,0,0,64.871,52V23.8A.883.883,0,0,0,64.44,23.036ZM54.374,1.763h4.412l.051,1.763H54.324Zm-.1,3.525h4.613l.567,20.049-5.841,3.276ZM39.563,51.117H34.326V46.71h5.236Zm6.982,0H41.308V46.71h5.236Zm16.581,0H48.289V45.829a.877.877,0,0,0-.873-.881H33.454a.877.877,0,0,0-.873.881v5.288H17.745V33.128l13.963-7.834v7.315a.877.877,0,0,0,.873.881A.866.866,0,0,0,33,33.379l14.412-8.085v7.315a.877.877,0,0,0,.873.881.866.866,0,0,0,.423-.111l8.23-4.617,3.826-2.146,2.356-1.322Z" transform="translate(-16 0)" fill="#fff"/></g></g><g transform="translate(4.363 35.253)"><path d="M63.854,320H56.873a.877.877,0,0,0-.873.881v3.525a.877.877,0,0,0,.873.881h6.981a.877.877,0,0,0,.873-.881v-3.525A.877.877,0,0,0,63.854,320Zm-.873,3.525H57.745v-1.763h5.236Z" transform="translate(-56 -320)" fill="#fff"/></g><g transform="translate(20.072 35.253)"><g transform="translate(0)"><path d="M207.854,320h-6.982a.877.877,0,0,0-.873.881v3.525a.877.877,0,0,0,.873.881h6.982a.877.877,0,0,0,.873-.881v-3.525A.877.877,0,0,0,207.854,320Zm-.873,3.525h-5.236v-1.763h5.236Z" transform="translate(-200 -320)" fill="#fff"/></g></g><g transform="translate(35.78 35.253)"><path d="M351.854,320h-6.982a.877.877,0,0,0-.873.881v3.525a.877.877,0,0,0,.873.881h6.982a.877.877,0,0,0,.873-.881v-3.525A.877.877,0,0,0,351.854,320Zm-.873,3.525h-5.236v-1.763h5.236Z" transform="translate(-344 -320)" fill="#fff"/></g></g><path d="M541.107,63.646a.878.878,0,0,1-.873-.882V43.375a.883.883,0,0,1,.449-.77l15.709-8.813a.863.863,0,0,1,.423-.111.877.877,0,0,1,.873.881v7.314L572.1,33.792a.86.86,0,0,1,.423-.111.877.877,0,0,1,.873.881v.63l-1.745,2.627V36.06l-14.413,8.086a.871.871,0,0,1-1.3-.77V36.06l-13.964,7.834V61.883h13.687l-1.171,1.763ZM556.815,56.6a.878.878,0,0,1,.873-.882h2.077l-1.171,1.763h-.032v.049l-1.746,2.628Zm4.364-5.288a.877.877,0,0,1-.873-.881V46.9a.877.877,0,0,1,.873-.881H566.2l-1.171,1.763h-2.982v1.762h1.811l-1.171,1.762Zm-15.709,0a.877.877,0,0,1-.873-.881V46.9a.877.877,0,0,1,.873-.881h6.981a.877.877,0,0,1,.873.881v3.525a.877.877,0,0,1-.873.881Zm.872-1.762h5.236V47.783h-5.236Zm30.544-37.922a.878.878,0,0,1,.873-.857h6.109a.876.876,0,0,1,.872.857l.176,6.227-1.674,2.52-.122-4.317h-4.613l-.339,11.955-1.823,2.744Zm1.671,2.669h4.513l-.05-1.763h-4.412Z" transform="translate(-19901.168 -2439.339)" fill="#fac913"/></g></g></svg>