<svg xmlns="http://www.w3.org/2000/svg" xmlns:xlink="http://www.w3.org/1999/xlink" width="130" height="130" viewBox="0 0 130 130"><defs><clipPath id="b"><rect width="130" height="130"/></clipPath></defs><g id="a" clip-path="url(#b)"><rect width="130" height="130" fill="#f6f6f6"/><g transform="translate(-1454 -1898)"><g transform="translate(1454.001 1898)"><ellipse cx="65" cy="65" rx="65" ry="65" transform="translate(0 0)" fill="#213b71"/></g><g transform="translate(1495.926 1939.137)"><path d="M363.135-269.105a4.226,4.226,0,0,0-4.069-.209l-9.167,4.449v-.483a4.076,4.076,0,0,0-4.1-4.156h-8.879a18.439,18.439,0,0,1-5.395-.837l-5.783-1.8v-2.332a1.278,1.278,0,0,0-1.238-1.373h-8.1a1.47,1.47,0,0,0-1.462,1.373v21.462a1.432,1.432,0,0,0,1.462,1.327h8.1a1.239,1.239,0,0,0,1.238-1.327v-2.161l.966.719a14.012,14.012,0,0,0,8.717,3.039h7.8a13.756,13.756,0,0,0,7.791-2.393l12.262-8.363a4.137,4.137,0,0,0,1.808-3.42A4.115,4.115,0,0,0,363.135-269.105Zm-40.1,14.719h-5.4v-18.762h5.4ZM361.754-264.4l-12.262,8.358a11.068,11.068,0,0,1-6.27,1.924h-7.8a11.3,11.3,0,0,1-7.025-2.443l-2.658-2.08v-10.679l4.985,1.556a21.14,21.14,0,0,0,6.193.957h8.879a1.376,1.376,0,0,1,1.4,1.456v1.632a23.316,23.316,0,0,1-9.246.609,1.323,1.323,0,0,0-1.52,1.118,1.36,1.36,0,0,0,1.132,1.547,21.761,21.761,0,0,0,3.445.265,27.4,27.4,0,0,0,8.078-1.247h.009a1.349,1.349,0,0,0,.145-.06l.01,0,11.054-5.4a1.418,1.418,0,0,1,1.4.073,1.418,1.418,0,0,1,.679,1.225A1.445,1.445,0,0,1,361.754-264.4Z" transform="translate(-314.939 305.139)" fill="#fff"/><path d="M317.043-298.418a4.053,4.053,0,0,0,3.979.21l9.077-4.448v.483a4.3,4.3,0,0,0,4.285,4.243h8.879a17.8,17.8,0,0,1,5.3.793l5.694,1.759v2.332a1.388,1.388,0,0,0,1.417,1.326h8.1a1.273,1.273,0,0,0,1.283-1.326v-21.462a1.316,1.316,0,0,0-1.283-1.374h-8.1a1.43,1.43,0,0,0-1.417,1.374v2.161l-.876-.743a13.785,13.785,0,0,0-8.629-3.063h-7.8a13.777,13.777,0,0,0-7.791,2.417L316.9-305.36a4.146,4.146,0,0,0-1.808,3.426A4.12,4.12,0,0,0,317.043-298.418Zm39.917-14.764h5.4v18.762h-5.4Zm-38.536,10.057,12.262-8.381a11.09,11.09,0,0,1,6.27-1.946h7.8a11.081,11.081,0,0,1,6.937,2.466l2.567,2.1V-298.2l-4.9-1.511a20.48,20.48,0,0,0-6.1-.914h-8.879a1.6,1.6,0,0,1-1.585-1.544v-1.632a24.055,24.055,0,0,1,9.337-.608,1.368,1.368,0,0,0,1.564-1.118,1.344,1.344,0,0,0-1.109-1.547,26.5,26.5,0,0,0-11.509.983h0l0,0a.747.747,0,0,0-.076.031c-.026.011-.052.02-.078.033l-11.055,5.4a1.418,1.418,0,0,1-1.4-.073,1.419,1.419,0,0,1-.679-1.225A1.445,1.445,0,0,1,318.424-303.125Z" transform="translate(-314.981 316.152)" fill="#fff"/><path d="M347.872-285.643a4.24,4.24,0,0,0-2.128-.575,4.239,4.239,0,0,0-4.234,4.234c0,1.385.957,2.966,2.927,4.834a27.365,27.365,0,0,0,2.652,2.2,1.345,1.345,0,0,0,.783.25,1.347,1.347,0,0,0,.783-.25,27.459,27.459,0,0,0,2.652-2.2c1.969-1.867,2.927-3.448,2.927-4.834A4.239,4.239,0,0,0,350-286.218,4.242,4.242,0,0,0,347.872-285.643Zm3.663,3.66c0,.859-1.8,2.775-3.663,4.246-1.861-1.469-3.662-3.384-3.662-4.246a1.536,1.536,0,0,1,1.534-1.535,1.517,1.517,0,0,1,1.132.5,1.351,1.351,0,0,0,1,.438,1.349,1.349,0,0,0,1-.439,1.521,1.521,0,0,1,1.132-.5A1.536,1.536,0,0,1,351.535-281.983Z" transform="translate(-322.2 307.972)" fill="#fff"/><path d="M1.462,53.453A1.432,1.432,0,0,1,0,52.125V30.664a1.47,1.47,0,0,1,1.462-1.373h8.1A1.279,1.279,0,0,1,10.8,30.664V33l5.783,1.8a18.531,18.531,0,0,0,4.983.833L19.83,38.217a21.609,21.609,0,0,1-4.046-.84L10.8,35.821V46.5l2.278,1.783-1.511,2.252-.767-.571v1.714l-1.19,1.774H1.462Zm1.238-2.7H8.1V31.991H2.7ZM22.237,30.822c-1.97-1.868-2.927-3.449-2.927-4.834a4.233,4.233,0,0,1,6.362-3.659,4.228,4.228,0,0,1,4.644.257l-1.508,2.247a1.534,1.534,0,0,0-2.141.119,1.35,1.35,0,0,1-1.992,0,1.515,1.515,0,0,0-1.132-.5,1.536,1.536,0,0,0-1.534,1.535c0,.812,1.6,2.563,3.345,3.991l-1.506,2.245C23.385,31.851,22.812,31.367,22.237,30.822Zm6.044-12.6H19.4a4.3,4.3,0,0,1-4.285-4.243V13.5L6.041,17.944a4.05,4.05,0,0,1-3.979-.211,4.147,4.147,0,0,1-.141-6.942L14.182,2.417A13.778,13.778,0,0,1,21.974,0h7.8A13.784,13.784,0,0,1,38.4,3.063l.876.743V1.644A1.429,1.429,0,0,1,40.7.27h4.591l-1.811,2.7h-1.5V5.2l-2.7,4.024V7.269l-2.567-2.1A11.077,11.077,0,0,0,29.776,2.7h-7.8A11.092,11.092,0,0,0,15.7,4.646L3.443,13.027a1.448,1.448,0,0,0-.631,1.194,1.445,1.445,0,0,0,2.079,1.3l11.054-5.4c.026-.013.052-.022.078-.032a.659.659,0,0,1,.076-.032l0,0h0a26.5,26.5,0,0,1,11.508-.982,1.344,1.344,0,0,1,1.11,1.547,1.369,1.369,0,0,1-1.564,1.119,18.811,18.811,0,0,0-2.983-.229,26.562,26.562,0,0,0-6.355.836v1.633A1.6,1.6,0,0,0,19.4,15.523h8.879a20.471,20.471,0,0,1,6.1.914l.049.015-1.579,2.354A17.863,17.863,0,0,0,28.282,18.222Z" transform="translate(0 0)" fill="#fac913"/></g></g></g></svg>