<svg xmlns="http://www.w3.org/2000/svg" xmlns:xlink="http://www.w3.org/1999/xlink" width="130" height="130" viewBox="0 0 130 130"><defs><clipPath id="b"><rect width="130" height="130"/></clipPath></defs><g id="a" clip-path="url(#b)"><rect width="130" height="130" fill="#f6f6f6"/><ellipse cx="65" cy="65" rx="65" ry="65" fill="#213b71"/><g transform="translate(18785 2765)"><g transform="translate(-18740.172 -2723.348)"><g transform="translate(-31.816 0)" fill="#fff"><path d="M 43.49463272094727 32.34546279907227 C 35.93131256103516 32.34546279907227 31.76600074768066 27.95677185058594 31.76600074768066 19.98783111572266 C 31.76600074768066 12.5198917388916 42.42455291748047 0.7095717787742615 42.87828063964844 0.2104717791080475 C 43.03927230834961 0.04450178146362305 43.26351165771484 -0.04999822005629539 43.49463272094727 -0.04999822005629539 C 43.72522354125977 -0.04999822005629539 43.94944000244141 0.0444817803800106 44.10978317260742 0.2092317789793015 C 44.56467056274414 0.7095717787742615 55.22314071655273 12.51979160308838 55.22314071655273 19.98783111572266 C 55.22314071655273 27.95677185058594 51.0578727722168 32.34546279907227 43.49463272094727 32.34546279907227 Z M 43.49460983276367 2.007528781890869 C 41.07983779907227 4.811911582946777 33.42316055297852 14.16886711120605 33.42316055297852 19.98783111572266 C 33.42316055297852 24.87786102294922 35.17047119140625 30.70699119567871 43.49463272094727 30.70699119567871 C 47.22094345092773 30.70699119567871 49.90911102294922 29.52262115478516 51.48446273803711 27.18678092956543 C 52.66134262084961 25.4417610168457 53.23343276977539 23.08696174621582 53.23343276977539 19.98783111572266 C 53.23343276977539 17.46766090393066 51.87051010131836 14.01980209350586 49.18253326416016 9.740032196044922 C 46.73644638061523 5.845422267913818 44.09450912475586 2.70600152015686 43.49460983276367 2.007528781890869 Z" stroke="none"/><path d="M 43.49463272094727 32.29546356201172 C 51.02564239501953 32.29546356201172 55.17314147949219 27.92464256286621 55.17314147949219 19.98783111572266 C 55.17314147949219 12.55703163146973 44.52713012695312 0.742601752281189 44.07395172119141 0.2441017776727676 C 43.9222526550293 0.08824177831411362 43.71321105957031 1.781005835255201e-06 43.49463272094727 1.781005835255201e-06 C 43.27603149414062 1.781005835255201e-06 43.06650161743164 0.08824177831411362 42.915283203125 0.2441017776727676 C 42.46210098266602 0.742601752281189 31.81600189208984 12.55703163146973 31.81600189208984 19.98783111572266 C 31.81600189208984 27.92464256286621 35.96360015869141 32.29546356201172 43.49463272094727 32.29546356201172 M 43.49463272094727 1.930911779403687 C 45.72354125976562 4.515411853790283 53.28343200683594 14.08085155487061 53.28343200683594 19.98783111572266 C 53.28343200683594 24.90069198608398 51.85964202880859 30.75699234008789 43.49463272094727 30.75699234008789 C 35.12951278686523 30.75699234008789 33.37316131591797 24.90069198608398 33.37316131591797 19.98783111572266 C 33.37316131591797 14.08085155487061 41.26531219482422 4.515411853790283 43.49463272094727 1.930911779403687 M 43.49463272094727 32.39546203613281 C 35.89906311035156 32.39546203613281 31.71600151062012 27.98901176452637 31.71600151062012 19.98783111572266 C 31.71600151062012 12.50078201293945 42.38702011108398 0.6765217781066895 42.84129333496094 0.1768317818641663 C 43.01274108886719 4.178100425633602e-05 43.25007247924805 -0.09999822080135345 43.49463272094727 -0.09999822080135345 C 43.73863983154297 -0.09999822080135345 43.97591018676758 1.781005835255201e-06 44.14561080932617 0.1743517816066742 C 44.60220336914062 0.6765217781066895 55.27313995361328 12.50068187713623 55.27313995361328 19.98783111572266 C 55.27313995361328 27.98901176452637 51.09012222290039 32.39546203613281 43.49463272094727 32.39546203613281 Z M 43.49453735351562 2.084277868270874 C 41.04126739501953 4.938297748565674 33.47315979003906 14.21628475189209 33.47315979003906 19.98783111572266 C 33.47315979003906 22.97519111633301 34.11416244506836 25.38711166381836 35.37834167480469 27.15660095214844 C 37.03775024414062 29.47929191589355 39.76847076416016 30.65699195861816 43.49463272094727 30.65699195861816 C 47.20330047607422 30.65699195861816 49.87752151489258 29.48003196716309 51.44300079345703 27.15882110595703 C 52.61413192749023 25.42233085632324 53.18343353271484 23.07668113708496 53.18343353271484 19.98783111572266 C 53.18343353271484 17.47721099853516 51.82309341430664 14.03830146789551 49.14019012451172 9.766632080078125 C 46.74420166015625 5.951753616333008 44.16019821166992 2.862103939056396 43.49453735351562 2.084277868270874 Z" stroke="none" fill="#fff"/></g><g transform="translate(-276.85 -129.877)" fill="#fff"><path d="M 310.3282165527344 163.7613677978516 C 305.8432922363281 163.7613677978516 303.2710571289062 160.8065032958984 303.2710571289062 155.6544342041016 C 303.2710571289062 153.6415710449219 304.3238220214844 151.0927734375 306.400146484375 148.0788879394531 C 307.9550170898438 145.8218688964844 309.5456237792969 144.1102905273438 309.7218933105469 143.9225616455078 C 309.8817443847656 143.7629089355469 310.1023254394531 143.6720123291016 310.3282165527344 143.6720123291016 C 310.5540771484375 143.6720123291016 310.774658203125 143.7629089355469 310.9333801269531 143.9214019775391 C 311.11083984375 144.1104431152344 312.7023010253906 145.8232879638672 314.2562255859375 148.0788879394531 C 316.3325500488281 151.0927886962891 317.3853149414062 153.6415710449219 317.3853149414062 155.6544342041016 C 317.3853149414062 160.8065032958984 314.8131103515625 163.7613677978516 310.3282165527344 163.7613677978516 Z M 310.3282165527344 145.7183074951172 C 309.6004028320312 146.5574798583984 308.2462768554688 148.1965942382812 307.0822143554688 150.0393371582031 C 305.6529235839844 152.3019409179688 304.9281921386719 154.1911315917969 304.9281921386719 155.6544342041016 C 304.9281921386719 159.9465942382812 306.7450256347656 162.1228942871094 310.3282165527344 162.1228942871094 C 313.9113464355469 162.1228942871094 315.7281799316406 159.9465942382812 315.7281799316406 155.6544342041016 C 315.7281799316406 154.1912078857422 315.00341796875 152.302001953125 313.5740051269531 150.0393371582031 C 312.4106140136719 148.1977386474609 311.0562133789062 146.5579833984375 310.3282165527344 145.7183074951172 Z" stroke="none"/><path d="M 310.3282165527344 163.7113800048828 C 314.7813110351562 163.7113800048828 317.3353271484375 160.7753753662109 317.3353271484375 155.6544342041016 C 317.3353271484375 150.8460235595703 311.1603393554688 144.2362365722656 310.8980407714844 143.956787109375 C 310.74755859375 143.8065185546875 310.5422058105469 143.7220153808594 310.3282165527344 143.7220153808594 C 310.1141967773438 143.7220153808594 309.9088439941406 143.8065185546875 309.7583312988281 143.956787109375 C 309.4959716796875 144.2362365722656 303.321044921875 150.8460235595703 303.321044921875 155.6544342041016 C 303.321044921875 160.7753753662109 305.8746032714844 163.7113800048828 310.3282165527344 163.7113800048828 M 310.3282165527344 145.6420593261719 C 311.8297729492188 147.3683624267578 315.7781677246094 152.233154296875 315.7781677246094 155.6544342041016 C 315.7781677246094 159.9797973632812 313.9445495605469 162.1728973388672 310.3282165527344 162.1728973388672 C 306.7116394042969 162.1728973388672 304.8782043457031 159.9797973632812 304.8782043457031 155.6544342041016 C 304.8782043457031 152.233154296875 308.826171875 147.3683624267578 310.3282165527344 145.6420593261719 M 310.3282165527344 163.8113708496094 C 305.8114929199219 163.8113708496094 303.2210388183594 160.8382873535156 303.2210388183594 155.6544342041016 C 303.2210388183594 153.6312408447266 304.2767944335938 151.0729217529297 306.3589477539062 148.0505218505859 C 307.9159240722656 145.7904815673828 309.5089111328125 144.0763549804688 309.6854248046875 143.8883361816406 C 309.855712890625 143.7182464599609 310.0892028808594 143.6220092773438 310.3282165527344 143.6220092773438 C 310.5672302246094 143.6220092773438 310.8006896972656 143.7182464599609 310.9686889648438 143.8860321044922 C 311.1475524902344 144.0765075683594 312.7413940429688 145.7919006347656 314.2973937988281 148.0505218505859 C 316.3795776367188 151.0729217529297 317.4353332519531 153.6312408447266 317.4353332519531 155.6544342041016 C 317.4353332519531 160.8382873535156 314.8448791503906 163.8113708496094 310.3282165527344 163.8113708496094 Z M 310.3282165527344 145.7946929931641 C 309.5930480957031 146.6450500488281 308.2670288085938 148.2573699951172 307.1244812011719 150.0660400390625 C 305.7003173828125 152.3205261230469 304.9782104492188 154.2007293701172 304.9782104492188 155.6544342041016 C 304.9782104492188 157.782958984375 305.430908203125 159.4036560058594 306.32373046875 160.4715423583984 C 307.2120971679688 161.5341186523438 308.5594177246094 162.0728912353516 310.3282165527344 162.0728912353516 C 312.096923828125 162.0728912353516 313.4441833496094 161.5341186523438 314.3326110839844 160.4715423583984 C 315.2254333496094 159.4036254882812 315.6781616210938 157.7829284667969 315.6781616210938 155.6544342041016 C 315.6781616210938 154.2008056640625 314.9559936523438 152.3206024169922 313.53173828125 150.0660400390625 C 312.3899230957031 148.2586212158203 311.0635986328125 146.6455993652344 310.3282165527344 145.7946929931641 Z" stroke="none" fill="#fff"/></g><g transform="translate(-190.367 -288.644)" fill="#fff"><path d="M 212.9459838867188 334.8359985351562 C 209.45068359375 334.8359985351562 207.4460144042969 332.5748291015625 207.4460144042969 328.6322631835938 C 207.4460144042969 325.133544921875 212.1255340576172 319.8512878417969 212.3247528076172 319.6281433105469 C 212.4863739013672 319.4591979980469 212.7123718261719 319.363037109375 212.9459838867188 319.363037109375 C 213.1792144775391 319.363037109375 213.4051971435547 319.4591674804688 213.5659942626953 319.6268310546875 C 213.7664184570312 319.8513793945312 218.4459838867188 325.1357727050781 218.4459838867188 328.6322631835938 C 218.4459838867188 332.5748291015625 216.4413146972656 334.8359985351562 212.9459838867188 334.8359985351562 Z M 212.9460296630859 321.443115234375 C 211.0807952880859 323.7224731445312 209.1031494140625 326.7930603027344 209.1031494140625 328.6322631835938 C 209.1031494140625 331.6615600585938 210.3960571289062 333.1975708007812 212.9459838867188 333.1975708007812 C 215.4958953857422 333.1975708007812 216.788818359375 331.6615600585938 216.788818359375 328.6322631835938 C 216.788818359375 326.7840576171875 214.8112487792969 323.7165832519531 212.9460296630859 321.443115234375 Z" stroke="none"/><path d="M 212.9459838867188 319.4130249023438 C 212.7250518798828 319.4130249023438 212.5137786865234 319.5028686523438 212.3620452880859 319.6614379882812 C 212.1635589599609 319.8837890625 207.4960174560547 325.1506958007812 207.4960174560547 328.6322631835938 C 207.4960174560547 332.5429077148438 209.4827423095703 334.7860107421875 212.9459838867188 334.7860107421875 C 216.4088592529297 334.7860107421875 218.3959808349609 332.5429077148438 218.3959808349609 328.6322631835938 C 218.3959808349609 325.1506958007812 213.7283172607422 319.8837890625 213.5299072265625 319.6614379882812 C 213.3778228759766 319.5028686523438 213.1668395996094 319.4130249023438 212.9459838867188 319.4130249023438 M 212.9459838867188 333.24755859375 C 210.3635406494141 333.24755859375 209.0531463623047 331.6944580078125 209.0531463623047 328.6322631835938 C 209.0531463623047 326.5411987304688 211.4891510009766 323.1375732421875 212.9459838867188 321.3643188476562 C 214.4035034179688 323.1337890625 216.8388214111328 326.5382690429688 216.8388214111328 328.6322631835938 C 216.8388214111328 331.6944580078125 215.5284576416016 333.24755859375 212.9459838867188 333.24755859375 M 212.9459838867188 319.3130187988281 C 213.1927642822266 319.3130187988281 213.4319000244141 319.414794921875 213.6020812988281 319.5922241210938 C 213.8042449951172 319.8186645507812 218.4959716796875 325.116943359375 218.4959716796875 328.6322631835938 C 218.4959716796875 332.6065979003906 216.4730834960938 334.8860168457031 212.9459838867188 334.8860168457031 C 209.4188995361328 334.8860168457031 207.3960266113281 332.6065979003906 207.3960266113281 328.6322631835938 C 207.3960266113281 325.1147155761719 212.0877227783203 319.8185729980469 212.2874450683594 319.5948486328125 C 212.4596252441406 319.4148254394531 212.6987915039062 319.3130187988281 212.9459838867188 319.3130187988281 Z M 212.9459838867188 333.1475524902344 C 214.2003936767578 333.1475524902344 215.1553802490234 332.7694702148438 215.7843933105469 332.0237426757812 C 216.4176940917969 331.2729797363281 216.7388153076172 330.1318969726562 216.7388153076172 328.6322631835938 C 216.7388153076172 326.8099365234375 214.7943572998047 323.7839050292969 212.9460754394531 321.5220947265625 C 211.0977630615234 323.7897338867188 209.1531524658203 326.81884765625 209.1531524658203 328.6322631835938 C 209.1531524658203 330.1318969726562 209.4742736816406 331.27294921875 210.1075897216797 332.0237426757812 C 210.7366027832031 332.7694702148438 211.6915740966797 333.1475524902344 212.9459838867188 333.1475524902344 Z" stroke="none" fill="#fff"/></g><g transform="translate(-59.446 -166.065)" fill="#fff"><path d="M 69.56778717041016 195.3331909179688 C 69.53877258300781 195.3331909179688 69.51164245605469 195.3318634033203 69.48483276367188 195.3291625976562 C 67.41473388671875 195.2129211425781 65.48973083496094 194.2219085693359 64.20561981201172 192.6104278564453 C 61.70464324951172 189.3799438476562 62.48778533935547 184.5813903808594 62.52234268188477 184.3787078857422 C 62.59899520874023 183.9944610595703 62.9406623840332 183.7165832519531 63.33500289916992 183.7165832519531 C 63.38035202026367 183.7165832519531 63.42618179321289 183.7203216552734 63.47123336791992 183.7276916503906 C 63.91616439819336 183.8009490966797 64.21705627441406 184.2044372558594 64.15628051757812 184.6462707519531 C 64.13751220703125 184.77001953125 63.98147201538086 185.8542022705078 64.07084655761719 187.2131805419922 C 64.15386199951172 188.4755554199219 64.47355651855469 190.2647094726562 65.52509307861328 191.6193084716797 C 66.53452301025391 192.8603515625 68.03758239746094 193.6184997558594 69.64815521240234 193.6985168457031 C 70.09016418457031 193.7423095703125 70.41738128662109 194.1183319091797 70.39556121826172 194.5547637939453 C 70.37319183349609 194.9912872314453 70.00958251953125 195.3331909179688 69.56778717041016 195.3331909179688 Z" stroke="none"/><path d="M 69.56778717041016 195.2831878662109 C 69.9825439453125 195.2831878662109 70.32464599609375 194.9616241455078 70.34562683105469 194.5522613525391 C 70.36609649658203 194.1428527832031 70.05858612060547 193.7894134521484 69.64567565917969 193.7484588623047 C 68.01939392089844 193.6676635742188 66.50563049316406 192.9040679931641 65.485595703125 191.6499786376953 C 63.41490173339844 188.9824676513672 64.10070037841797 184.6822204589844 64.10675048828125 184.6394653320312 C 64.16342163085938 184.2273864746094 63.87830352783203 183.8453979492188 63.46316528320312 183.7770385742188 C 63.42013549804688 183.7699890136719 63.37726974487305 183.7665863037109 63.33500671386719 183.7665863037109 C 62.96944808959961 183.7665863037109 62.64460754394531 184.0214080810547 62.57163238525391 184.3871002197266 C 62.53700256347656 184.5901947021484 61.76493453979492 189.3761444091797 64.24472045898438 192.5792694091797 C 65.52060699462891 194.180419921875 67.43049621582031 195.1637268066406 69.48985290527344 195.2794189453125 C 69.51570129394531 195.2820281982422 69.54155731201172 195.2831878662109 69.56778717041016 195.2831878662109 M 69.56778717041016 195.3831787109375 C 69.53708648681641 195.3831787109375 69.50830078125 195.3817901611328 69.47980499267578 195.37890625 C 67.39773559570312 195.2620391845703 65.45949554443359 194.2641906738281 64.16651153564453 192.6415863037109 C 61.65181350708008 189.3933868408203 62.4383430480957 184.5738677978516 62.47305297851562 184.3703002929688 C 62.55461502075195 183.9613800048828 62.91689300537109 183.6665802001953 63.33500289916992 183.6665802001953 C 63.38305282592773 183.6665802001953 63.43160247802734 183.6705474853516 63.47931289672852 183.6783447265625 C 63.95122528076172 183.7560577392578 64.27030181884766 184.1842041015625 64.20582580566406 184.6530914306641 L 64.20572662353516 184.6537780761719 L 64.20503234863281 184.6583709716797 C 64.18703460693359 184.7769622802734 64.03171539306641 185.856201171875 64.12074279785156 187.2098999023438 C 64.20330047607422 188.4653015136719 64.52081298828125 190.2440490722656 65.56458282470703 191.5886535644531 C 66.56437683105469 192.8178100585938 68.05420684814453 193.5692749023438 69.650634765625 193.6485748291016 C 70.12166595458984 193.6951904296875 70.46865081787109 194.0941619873047 70.44550323486328 194.5572509765625 C 70.42176055908203 195.0204467773438 70.03622436523438 195.3831787109375 69.56778717041016 195.3831787109375 Z" stroke="none" fill="#fff"/></g><g transform="translate(-327.298 -230.974)" fill="#fff"><path d="M 359.998291015625 261.7809143066406 L 359.9979553222656 261.7809143066406 L 359.9975891113281 261.7809143066406 C 359.5407104492188 261.7809143066406 359.1690063476562 261.4133911132812 359.1690063476562 260.961669921875 C 359.1690063476562 260.510009765625 359.5407104492188 260.1425476074219 359.9975891113281 260.1425476074219 C 360.968505859375 260.1235961914062 361.8876647949219 259.7449035644531 362.5852661132812 259.0762023925781 C 363.1311340332031 258.3251342773438 363.3094787597656 257.3813171386719 363.0744934082031 256.4859924316406 L 363.0737915039062 256.4832763671875 L 363.0733947753906 256.4804992675781 C 363.0088500976562 256.0364685058594 363.30908203125 255.6305541992188 363.7568664550781 255.5563659667969 C 363.8023071289062 255.5488739013672 363.8484802246094 255.5450897216797 363.8941650390625 255.5450897216797 C 364.2901611328125 255.5450897216797 364.6320190429688 255.8246459960938 364.7070617675781 256.2098388671875 C 365.0404663085938 257.5873413085938 364.7263793945312 259.0210571289062 363.8448791503906 260.1411743164062 L 363.8431701660156 260.1433715820312 L 363.8412170410156 260.1453552246094 C 362.8231201171875 261.1794738769531 361.4583435058594 261.7603149414062 359.998291015625 261.7809143066406 Z" stroke="none"/><path d="M 359.9975891113281 261.7308959960938 C 361.4342041015625 261.7106628417969 362.803955078125 261.127685546875 363.8056030273438 260.1102600097656 C 364.6728515625 259.0082397460938 364.9864807128906 257.5768432617188 364.6579895019531 256.2193908691406 C 364.5863952636719 255.8519592285156 364.2610168457031 255.5950927734375 363.8941650390625 255.5950927734375 C 363.8515625 255.5950927734375 363.8084411621094 255.5985412597656 363.7650451660156 255.6056976318359 C 363.3480224609375 255.6747894287109 363.0627746582031 256.0597534179688 363.1228637695312 256.4732971191406 C 363.3612060546875 257.3814697265625 363.1780090332031 258.3479309082031 362.623046875 259.1092529296875 C 361.9185485839844 259.7861022949219 360.97998046875 260.1733703613281 359.9975891113281 260.1925659179688 C 359.5677490234375 260.1925659179688 359.218994140625 260.536865234375 359.218994140625 260.961669921875 C 359.218994140625 261.386474609375 359.5677490234375 261.7308959960938 359.9975891113281 261.7308959960938 M 359.998291015625 261.8309020996094 L 359.9975891113281 261.8309020996094 C 359.5131225585938 261.8309020996094 359.1189880371094 261.4409790039062 359.1189880371094 260.961669921875 C 359.1189880371094 260.4824523925781 359.5131225585938 260.0925598144531 359.9975891113281 260.0925598144531 C 360.9534301757812 260.0738830566406 361.8592834472656 259.7012634277344 362.54736328125 259.0432739257812 C 363.0823974609375 258.304931640625 363.2569274902344 257.3780212402344 363.0261535644531 256.4986877441406 L 363.0247192382812 256.4932556152344 L 363.0238952636719 256.4876708984375 C 362.9565734863281 256.0243225097656 363.2817077636719 255.5844116210938 363.7486877441406 255.5070343017578 C 363.7968139648438 255.4991149902344 363.8457336425781 255.4950866699219 363.8941650390625 255.4950866699219 C 364.3140258789062 255.4950866699219 364.6765441894531 255.7916564941406 364.7561340332031 256.2002563476562 C 365.0926818847656 257.590576171875 364.7752075195312 259.0398559570312 363.8841857910156 260.1720886230469 L 363.8807373046875 260.1764526367188 L 363.8768615722656 260.180419921875 C 362.8494873046875 261.2239685058594 361.4722900390625 261.8101196289062 359.9989929199219 261.8309020996094 L 359.998291015625 261.8309020996094 Z" stroke="none" fill="#fff"/></g><g transform="translate(-217.242 -367.908)" fill="#fff"><path d="M 239.0409240722656 411.02685546875 C 239.0409088134766 411.02685546875 239.0408935546875 411.02685546875 239.0408782958984 411.02685546875 C 238.911865234375 411.0268249511719 238.7874908447266 410.9977722167969 238.6712036132812 410.9403991699219 C 238.0502624511719 410.6559143066406 237.5687713623047 410.1233825683594 237.3514709472656 409.47998046875 C 237.1345977783203 408.8364562988281 237.1968383789062 408.1248474121094 237.5222320556641 407.5276489257812 C 237.6629943847656 407.2494201660156 237.9473114013672 407.0757446289062 238.2635040283203 407.0757446289062 C 238.3925018310547 407.0757446289062 238.5168304443359 407.1048278808594 238.6330261230469 407.1622314453125 C 238.8320007324219 407.26025390625 238.9800567626953 407.42919921875 239.0498809814453 407.6380004882812 C 239.1191558837891 407.8450927734375 239.1030120849609 408.0666198730469 239.0044555664062 408.2618408203125 C 238.8742828369141 408.4743041992188 238.8455352783203 408.7271423339844 238.9235534667969 408.9591674804688 C 239.0018463134766 409.1911926269531 239.1784210205078 409.3768005371094 239.4079284667969 409.4683532714844 L 239.4394073486328 409.4808959960938 L 239.4394073486328 409.4881591796875 C 239.6245422363281 409.5881042480469 239.7621765136719 409.7510986328125 239.8286285400391 409.9501342773438 C 239.8977203369141 410.1570129394531 239.8815307617188 410.3782653808594 239.7830505371094 410.5731811523438 C 239.6416168212891 410.85302734375 239.3572692871094 411.02685546875 239.0409240722656 411.02685546875 Z" stroke="none"/><path d="M 239.0408782958984 410.9768371582031 C 239.3268127441406 410.9768676757812 239.6019287109375 410.8207092285156 239.7384185791016 410.5506286621094 C 239.9304351806641 410.1705932617188 239.7744903564453 409.7085876464844 239.389404296875 409.5185852050781 L 239.389404296875 409.5148010253906 C 239.1464996337891 409.4179077148438 238.9590301513672 409.2206726074219 238.8761596679688 408.97509765625 C 238.7936401367188 408.7297058105469 238.8240814208984 408.4605102539062 238.9598236083984 408.2392883300781 C 239.1517791748047 407.8591003417969 238.9960021972656 407.3967590332031 238.6108856201172 407.2070617675781 C 238.4991760253906 407.1518859863281 238.3804168701172 407.125732421875 238.2635040283203 407.125732421875 C 237.9777374267578 407.125732421875 237.70263671875 407.2818298339844 237.5661468505859 407.5515747070312 C 237.24609375 408.1389770507812 237.1855773925781 408.8311462402344 237.3988342285156 409.4639892578125 C 237.6125946044922 410.0968933105469 238.0808410644531 410.6149291992188 238.6933288574219 410.8955688476562 C 238.8051300048828 410.9507141113281 238.9239196777344 410.9768371582031 239.0408782958984 410.9768371582031 M 239.0409088134766 411.0768432617188 C 238.9041290283203 411.0768432617188 238.7723083496094 411.0460205078125 238.6490783691406 410.9852600097656 C 238.0169677734375 410.6956481933594 237.5257873535156 410.1524047851562 237.3040924072266 409.4960021972656 C 237.0827789306641 408.8392639160156 237.1463012695312 408.1131286621094 237.4783325195312 407.5037536621094 C 237.626953125 407.2099304199219 237.9283599853516 407.0257263183594 238.2635040283203 407.0257263183594 C 238.4002532958984 407.0257263183594 238.5320281982422 407.0565795898438 238.6551666259766 407.1174011230469 C 238.8661499023438 407.2213134765625 239.0232086181641 407.4006042480469 239.0973052978516 407.6221313476562 C 239.1708374023438 407.8419799804688 239.1537170410156 408.0771484375 239.0490875244141 408.2843627929688 L 239.0472259521484 408.2880554199219 L 239.0450592041016 408.2915954589844 C 238.9246673583984 408.48779296875 238.8976593017578 408.7252807617188 238.970947265625 408.9432373046875 C 239.0445404052734 409.1612854003906 239.2105712890625 409.3358154296875 239.4264526367188 409.4219055175781 L 239.4894104003906 409.447021484375 L 239.4894104003906 409.4588928222656 C 239.6725463867188 409.5658264160156 239.8087005615234 409.7326049804688 239.8760681152344 409.9342956542969 C 239.9494018554688 410.1539306640625 239.9322204589844 410.3888244628906 239.8276672363281 410.5957336425781 C 239.6776885986328 410.8924865722656 239.376220703125 411.0768432617188 239.0409088134766 411.0768432617188 Z" stroke="none" fill="#fff"/></g></g><g transform="translate(-19203.971 -2731.121)" fill="#fac913"><path d="M 475.4772033691406 40.11890029907227 C 467.9140319824219 40.11890029907227 463.7488098144531 35.73025894165039 463.7488098144531 27.76140022277832 C 463.7488098144531 26.05572128295898 464.3124084472656 23.97947120666504 465.4240112304688 21.59031105041504 C 466.3176574707031 19.66960144042969 467.5670166015625 17.54017066955566 469.1373901367188 15.26117038726807 C 471.9049072265625 11.24483108520508 474.7420959472656 8.11483097076416 474.8615112304688 7.983550548553467 C 475.0225219726562 7.81773042678833 475.2465209960938 7.723300457000732 475.4772033691406 7.723300457000732 C 475.70751953125 7.723300457000732 475.9318237304688 7.817690849304199 476.0925903320312 7.982260704040527 C 476.4328308105469 8.356980323791504 484.4217224121094 17.21108055114746 486.6376342773438 24.42093086242676 L 486.6446838378906 24.44386100769043 L 486.6312255859375 24.46371078491211 L 485.2100524902344 26.55695152282715 L 485.1382446289062 26.66271018981934 L 485.1192321777344 26.53629112243652 C 484.1390075683594 20.01594924926758 476.1792297363281 10.60027027130127 475.4771423339844 9.780464172363281 C 473.0624084472656 12.58519268035889 465.4057922363281 21.94318199157715 465.4057922363281 27.76140022277832 C 465.4057922363281 32.65113067626953 467.1531066894531 38.47990036010742 475.4772033691406 38.47990036010742 C 476.0283508300781 38.47990036010742 476.5636901855469 38.45389938354492 477.0682983398438 38.40262222290039 L 477.1749267578125 38.39178085327148 L 477.11474609375 38.48044967651367 L 476.0217590332031 40.0903205871582 L 476.00732421875 40.11153030395508 L 475.9817199707031 40.11220932006836 C 475.8148803710938 40.11664962768555 475.6451416015625 40.11890029907227 475.4772033691406 40.11890029907227 Z M 473.9201965332031 37.04180145263672 C 473.8889465332031 37.04180145263672 473.8618774414062 37.04053115844727 473.8374938964844 37.03792190551758 C 471.7666931152344 36.92127990722656 469.8416748046875 35.93032073974609 468.5585021972656 34.31935119628906 C 466.0492858886719 31.07904052734375 466.84033203125 26.28931045532227 466.8752136230469 26.08699989318848 C 466.9515686035156 25.70287132263184 467.2933044433594 25.42497062683105 467.6880798339844 25.42497062683105 C 467.7331848144531 25.42497062683105 467.7787475585938 25.42866134643555 467.8235473632812 25.43595123291016 C 468.2685241699219 25.50930976867676 468.5693664550781 25.91308975219727 468.508544921875 26.35521125793457 L 468.5074768066406 26.36248970031738 C 468.4411010742188 26.80919075012207 467.9155578613281 30.79973030090332 469.8772888183594 33.32785034179688 C 470.8868408203125 34.56885147094727 472.39013671875 35.32712936401367 474.0010070800781 35.4073600769043 C 474.44287109375 35.45072174072266 474.7698364257812 35.82670974731445 474.7477416992188 36.26351928710938 C 474.7257080078125 36.6999397277832 474.3621826171875 37.04180145263672 473.9201965332031 37.04180145263672 Z" stroke="none"/><path d="M 475.4772033691406 40.06890106201172 C 475.6468200683594 40.06890106201172 475.814208984375 40.066650390625 475.9803771972656 40.06222915649414 L 477.0733642578125 38.45236206054688 C 476.5714111328125 38.50337219238281 476.0404052734375 38.52989959716797 475.4772033691406 38.52989959716797 C 467.1126098632812 38.52989959716797 465.3558044433594 32.67359924316406 465.3558044433594 27.76140022277832 C 465.3558044433594 21.85379981994629 473.2479248046875 12.28860092163086 475.4772033691406 9.703800201416016 C 477.5572509765625 12.1155309677124 484.2780151367188 20.60430145263672 485.1686706542969 26.52886009216309 L 486.58984375 24.43562126159668 C 484.3819885253906 17.25200080871582 476.4463195800781 8.446200370788574 476.0568237304688 8.017200469970703 C 475.9047241210938 7.86150074005127 475.6959228515625 7.773300647735596 475.4772033691406 7.773300647735596 C 475.2585144042969 7.773300647735596 475.0497131347656 7.86150074005127 474.8984985351562 8.017200469970703 C 474.4449157714844 8.515800476074219 463.7987976074219 20.33010101318359 463.7987976074219 27.76140022277832 C 463.7987976074219 35.69760131835938 467.9460144042969 40.06890106201172 475.4772033691406 40.06890106201172 M 473.9201965332031 36.99180221557617 C 474.3351135253906 36.99180221557617 474.6771240234375 36.67050170898438 474.6978149414062 36.26100158691406 C 474.718505859375 35.85150146484375 474.4107055664062 35.49779891967773 473.9985046386719 35.45730209350586 C 472.3722229003906 35.37630081176758 470.8583984375 34.61310195922852 469.8377990722656 33.35850143432617 C 467.767822265625 30.6909008026123 468.45361328125 26.39070129394531 468.4590148925781 26.3484001159668 C 468.5157165527344 25.93620109558105 468.2304077148438 25.55370140075684 467.8155212402344 25.48530006408691 C 467.7727355957031 25.47833824157715 467.7301330566406 25.47496604919434 467.6880798339844 25.47496604919434 C 467.3224487304688 25.47496604919434 466.9971618652344 25.72985458374023 466.9244995117188 26.09550094604492 C 466.889404296875 26.29890060424805 466.1172180175781 31.0851001739502 468.5976257324219 34.28820037841797 C 469.8729248046875 35.88930130004883 471.78271484375 36.87210083007812 473.8428039550781 36.98820114135742 C 473.8680114746094 36.99090194702148 473.8941040039062 36.99180221557617 473.9201965332031 36.99180221557617 M 475.4772033691406 40.16889953613281 C 467.8817749023438 40.16889953613281 463.6987915039062 35.76250076293945 463.6987915039062 27.76140022277832 C 463.6987915039062 20.26609992980957 474.3702392578125 8.449280738830566 474.8245239257812 7.949910640716553 C 474.9960327148438 7.773250579833984 475.2330932617188 7.673300743103027 475.4772033691406 7.673300743103027 C 475.7209167480469 7.673300743103027 475.958251953125 7.773180484771729 476.1283569335938 7.947320461273193 C 476.4701538085938 8.323710441589355 484.4662780761719 17.18585014343262 486.6854248046875 24.40624046325684 L 486.6995239257812 24.45210075378418 L 486.6725769042969 24.49179077148438 L 485.2514038085938 26.58503150939941 L 485.1077880859375 26.79656028747559 L 485.0697937011719 26.54372978210449 C 484.1067810058594 20.13801956176758 476.3853454589844 10.9228401184082 475.4770202636719 9.85728931427002 C 473.0237731933594 12.71167945861816 465.455810546875 21.99058532714844 465.455810546875 27.76140022277832 C 465.455810546875 30.74835014343262 466.0968627929688 33.16007995605469 467.3611450195312 34.92959213256836 C 469.0206298828125 37.25223159790039 471.7512817382812 38.42990112304688 475.4772033691406 38.42990112304688 C 476.0266723632812 38.42990112304688 476.560302734375 38.40398025512695 477.0632629394531 38.35287094116211 L 477.2764892578125 38.33119964599609 L 477.1560974121094 38.50852966308594 L 476.0631103515625 40.11840057373047 L 476.0343017578125 40.16083145141602 L 475.9830322265625 40.16218948364258 C 475.8157653808594 40.16664123535156 475.6455688476562 40.16889953613281 475.4772033691406 40.16889953613281 Z M 473.9201965332031 37.09180068969727 C 473.8882446289062 37.09180068969727 473.8602294921875 37.09052658081055 473.8347473144531 37.0879020690918 C 471.7481384277344 36.96966171264648 469.8109741210938 35.97200775146484 468.5194091796875 34.35050201416016 C 465.9964294433594 31.09244155883789 466.7908935546875 26.28170013427734 466.8259582519531 26.07850074768066 C 466.9071350097656 25.6697998046875 467.26953125 25.37497138977051 467.6880798339844 25.37497138977051 C 467.7358703613281 25.37497138977051 467.7841491699219 25.37888145446777 467.8315734863281 25.38660049438477 C 468.3035888671875 25.46442031860352 468.6226196289062 25.89286041259766 468.5580749511719 26.36203002929688 L 468.5569458007812 26.36984062194824 C 468.4908752441406 26.81438064575195 467.9678039550781 30.78548049926758 469.9168090820312 33.29719924926758 C 470.9167175292969 34.52632141113281 472.4067687988281 35.27790069580078 474.0034790039062 35.357421875 C 474.474365234375 35.40357208251953 474.8211059570312 35.80253219604492 474.7976989746094 36.26605224609375 C 474.7742919921875 36.72909164428711 474.3888549804688 37.09180068969727 473.9201965332031 37.09180068969727 Z" stroke="none" fill="#fac913"/></g></g></g></svg>