<svg xmlns="http://www.w3.org/2000/svg" xmlns:xlink="http://www.w3.org/1999/xlink" width="130" height="130" viewBox="0 0 130 130"><defs><clipPath id="b"><rect width="130" height="130"/></clipPath></defs><g id="a" clip-path="url(#b)"><rect width="130" height="130" fill="#f6f6f6"/><g transform="translate(-894 -1898)"><g transform="translate(894 1898)"><ellipse cx="65" cy="65" rx="65" ry="65" transform="translate(0 0)" fill="#213b71"/></g><g transform="translate(930.93 1935.929)"><g transform="translate(0 0)"><g transform="translate(0 19.759)"><path d="M1198.671-293.119a1.136,1.136,0,0,0-1.136,1.135v7.836a5.684,5.684,0,0,1-5.677,5.677H1179.6a1.136,1.136,0,0,0-1.136,1.135v2.257l-2.71-2.71a1.136,1.136,0,0,0-1.041-.682h-7.379a5.684,5.684,0,0,1-5.678-5.677v-17.488a5.684,5.684,0,0,1,5.678-5.677H1178.8a1.136,1.136,0,0,0,1.136-1.136,1.135,1.135,0,0,0-1.136-1.135H1167.33a7.958,7.958,0,0,0-7.949,7.948v17.488a7.958,7.958,0,0,0,7.949,7.948h6.8l4.663,4.663a1.136,1.136,0,0,0,.8.333,1.133,1.133,0,0,0,.434-.086,1.134,1.134,0,0,0,.7-1.048l0-3.862h11.126a7.957,7.957,0,0,0,7.948-7.948v-7.836A1.135,1.135,0,0,0,1198.671-293.119Z" transform="translate(-1159.381 309.584)" fill="#fff" stroke="#fff" stroke-miterlimit="10" stroke-width="0.8"/></g><g transform="translate(22.256)"><path d="M1209.385-336.772h-2.874a16.523,16.523,0,0,0-16.505,16.5,16.524,16.524,0,0,0,16.505,16.505h2.874a16.553,16.553,0,0,0,4.189-.537l4.246,4.243a1.134,1.134,0,0,0,.8.332,1.126,1.126,0,0,0,.435-.086,1.135,1.135,0,0,0,.7-1.049v-6.57a16.661,16.661,0,0,0,4.339-5.349,16.331,16.331,0,0,0,1.793-7.489A16.523,16.523,0,0,0,1209.385-336.772Zm8.554,27.882a1.137,1.137,0,0,0-.452.907v4.383l-2.779-2.777a1.135,1.135,0,0,0-.8-.333,1.147,1.147,0,0,0-.334.05,14.227,14.227,0,0,1-4.187.626h-2.874a14.25,14.25,0,0,1-14.234-14.234,14.25,14.25,0,0,1,14.234-14.233h2.874a14.249,14.249,0,0,1,14.233,14.233A14.129,14.129,0,0,1,1217.938-308.891Z" transform="translate(-1190.006 336.772)" fill="#fff" stroke="#fff" stroke-miterlimit="10" stroke-width="0.8"/></g><g transform="translate(35.709 7.956)"><path d="M1218.119-321.355a4.817,4.817,0,0,0-4.457-4.457,4.77,4.77,0,0,0-3.618,1.281,4.824,4.824,0,0,0-1.528,3.515,1.135,1.135,0,0,0,1.136,1.135,1.135,1.135,0,0,0,1.135-1.135,2.511,2.511,0,0,1,.807-1.855,2.516,2.516,0,0,1,1.912-.675,2.538,2.538,0,0,1,2.348,2.347,2.526,2.526,0,0,1-1.973,2.658,2.149,2.149,0,0,0-1.693,2.106v2.728a1.136,1.136,0,0,0,1.135,1.136,1.136,1.136,0,0,0,1.136-1.136v-2.637A4.783,4.783,0,0,0,1218.119-321.355Z" transform="translate(-1208.516 325.824)" fill="#fff" stroke="#fff" stroke-miterlimit="10" stroke-width="0.8"/></g><g transform="translate(39.381 23.429)"><path d="M1215.507-304.2a1.143,1.143,0,0,0-.8-.333,1.142,1.142,0,0,0-.8.333,1.144,1.144,0,0,0-.333.8,1.144,1.144,0,0,0,.333.8,1.141,1.141,0,0,0,.8.331,1.141,1.141,0,0,0,.8-.331,1.146,1.146,0,0,0,.333-.8A1.144,1.144,0,0,0,1215.507-304.2Z" transform="translate(-1213.569 304.533)" fill="#fff" stroke="#fff" stroke-miterlimit="10" stroke-width="0.8"/></g><g transform="translate(6.132 35.202)"><path d="M1192.914-288.334h-23.96a1.135,1.135,0,0,0-1.135,1.135,1.136,1.136,0,0,0,1.135,1.136h23.96a1.136,1.136,0,0,0,1.136-1.136A1.136,1.136,0,0,0,1192.914-288.334Z" transform="translate(-1167.819 288.334)" fill="#fff" stroke="#fff" stroke-miterlimit="10" stroke-width="0.8"/></g><g transform="translate(30.092 41.561)"><path d="M1202.726-279.252a1.147,1.147,0,0,0-.8-.332,1.143,1.143,0,0,0-.8.332,1.144,1.144,0,0,0-.333.8,1.144,1.144,0,0,0,.333.8,1.144,1.144,0,0,0,.8.333,1.147,1.147,0,0,0,.8-.333,1.142,1.142,0,0,0,.333-.8A1.147,1.147,0,0,0,1202.726-279.252Z" transform="translate(-1200.788 279.584)" fill="#fff" stroke="#fff" stroke-miterlimit="10" stroke-width="0.8"/></g><g transform="translate(6.132 41.561)"><path d="M1188.448-279.584h-19.493a1.135,1.135,0,0,0-1.135,1.135,1.136,1.136,0,0,0,1.135,1.136h19.493a1.136,1.136,0,0,0,1.136-1.136A1.136,1.136,0,0,0,1188.448-279.584Z" transform="translate(-1167.819 279.584)" fill="#fff" stroke="#fff" stroke-miterlimit="10" stroke-width="0.8"/></g><g transform="translate(6.132 28.843)"><path d="M1185.533-297.084h-16.579a1.135,1.135,0,0,0-1.135,1.135,1.136,1.136,0,0,0,1.135,1.136h16.579a1.135,1.135,0,0,0,1.135-1.136A1.135,1.135,0,0,0,1185.533-297.084Z" transform="translate(-1167.819 297.084)" fill="#fff" stroke="#fff" stroke-miterlimit="10" stroke-width="0.8"/></g></g><path d="M7.949,53.143A7.958,7.958,0,0,1,0,45.194V27.707a7.958,7.958,0,0,1,7.949-7.949H19.417a1.135,1.135,0,1,1,0,2.271H7.949a5.685,5.685,0,0,0-5.678,5.678V45.194a5.685,5.685,0,0,0,5.678,5.677h7.185L13.61,53.143Zm-.681-9.311a1.135,1.135,0,0,1,0-2.271H21.38l-1.523,2.271Zm0-6.359a1.135,1.135,0,0,1,0-2.271H25.647l-1.523,2.271Zm0-6.358a1.135,1.135,0,0,1,0-2.271h16.58a1.135,1.135,0,0,1,0,2.271ZM22.256,16.5A16.524,16.524,0,0,1,38.761,0h2.874a16.412,16.412,0,0,1,6.681,1.413L47.028,3.332a14.16,14.16,0,0,0-5.393-1.061H38.761A14.23,14.23,0,0,0,30.445,28.05l-1.265,1.886A16.5,16.5,0,0,1,22.256,16.5Zm13.452-3.74a4.825,4.825,0,0,1,1.527-3.515,4.8,4.8,0,0,1,6.083-.388l-1.265,1.886a2.537,2.537,0,0,0-4.075,2.017,1.135,1.135,0,0,1-2.271,0Z" transform="translate(0 0.001)" fill="#fac913" stroke="#fac913" stroke-width="1"/></g></g></g></svg>