<svg xmlns="http://www.w3.org/2000/svg" xmlns:xlink="http://www.w3.org/1999/xlink" width="130" height="130" viewBox="0 0 130 130"><defs><clipPath id="b"><rect width="130" height="130"/></clipPath></defs><g id="a" clip-path="url(#b)"><rect width="130" height="130" fill="#f6f6f6"/><ellipse cx="65" cy="65" rx="65" ry="65" fill="#213b71"/><g transform="translate(19726 2503)"><path d="M48.361,12.81C46.454,7.365,37.939,3.28,27.486,2.566V2.455A2.458,2.458,0,0,0,25.031,0H23.394a2.458,2.458,0,0,0-2.455,2.455v.111c-10.49.716-19.029,4.828-20.9,10.3a.818.818,0,0,0,1.111,1.01c5.01-2.261,12.089-3.677,19.784-3.991v4.025a.818.818,0,0,0,.818.818V29.085a3.275,3.275,0,0,0-1.637,2.833V45.832a3.277,3.277,0,0,0,3.274,3.274h1.637a3.277,3.277,0,0,0,3.274-3.274V31.919a3.275,3.275,0,0,0-1.637-2.833V14.732a.818.818,0,0,0,.818-.818V9.888c7.7.314,14.774,1.73,19.784,3.991a.818.818,0,0,0,.337.072h.007a.819.819,0,0,0,.748-1.141ZM22.576,2.455a.819.819,0,0,1,.818-.818h1.637a.819.819,0,0,1,.818.818v.028q-.812-.027-1.637-.028t-1.637.028Zm4.092,43.377a1.639,1.639,0,0,1-1.637,1.637H23.394a1.639,1.639,0,0,1-1.637-1.637V31.919a1.639,1.639,0,0,1,1.637-1.637h1.637a1.639,1.639,0,0,1,1.637,1.637ZM25.031,28.645H23.394V14.732h1.637Zm.818-15.55H22.576V9.838q.815-.017,1.637-.017t1.637.017ZM24.213,8.184c-8.126,0-15.847,1.2-21.618,3.339A15.679,15.679,0,0,1,9.15,6.857,39.444,39.444,0,0,1,24.213,4.092,39.444,39.444,0,0,1,39.276,6.857a15.68,15.68,0,0,1,6.555,4.666C40.06,9.389,32.339,8.184,24.213,8.184Z" transform="translate(-19695.059 -2438.018) rotate(-45)" fill="#fff" stroke="#fff" stroke-width="0.125"/><path d="M506.289,52.978c-2.552-5.19.58-14.136,7.49-22.06l-.078-.078a2.459,2.459,0,0,1,0-3.472l1.157-1.157a2.457,2.457,0,0,1,3.472,0l.079.078c7.895-6.886,16.806-10.019,22-7.518a.82.82,0,0,1,.278,1.337l0,0a.823.823,0,0,1-.29.186c-5.141,1.944-11.147,5.949-16.811,11.168l2.847,2.846a.819.819,0,0,1,0,1.157l4.938,4.939-.929,1.385-5.166-5.167-1.157,1.157,5.394,5.395-.929,1.385-5.622-5.623a.819.819,0,0,1-1.157,0L518.956,36.1c-5.219,5.664-9.224,11.669-11.167,16.811a.82.82,0,0,1-.727.528h-.039A.819.819,0,0,1,506.289,52.978Zm23.49-31.991a39.449,39.449,0,0,0-12.606,8.7,39.454,39.454,0,0,0-8.7,12.606,15.681,15.681,0,0,0-1.336,7.934c2.571-5.59,7.179-11.9,12.925-17.647s12.057-10.354,17.647-12.925a9.717,9.717,0,0,0-1.459-.105A17.748,17.748,0,0,0,529.779,20.986Zm-8.554,12.747q-.582.582-1.146,1.169l2.3,2.3L524.7,34.89l-2.3-2.3Q521.8,33.153,521.224,33.733Zm-5.209-6.366-1.157,1.157a.82.82,0,0,0,0,1.157l.02.02q.555-.594,1.138-1.177t1.177-1.138l-.02-.02a.819.819,0,0,0-1.157,0Z" transform="translate(-20192.217 -2481.928)" fill="#fac913" stroke="#fac913" stroke-width="0.125"/></g></g></svg>