<svg xmlns="http://www.w3.org/2000/svg" xmlns:xlink="http://www.w3.org/1999/xlink" width="130" height="130" viewBox="0 0 130 130"><defs><clipPath id="b"><rect width="130" height="130"/></clipPath></defs><g id="a" clip-path="url(#b)"><rect width="130" height="130" fill="#f6f6f6"/><ellipse cx="65" cy="65" rx="65" ry="65" fill="#213b71"/><g transform="translate(19468 2366)"><g transform="translate(-19427.021 -2325.042)"><g transform="translate(11.749 41.353)"><path d="M126.932,449a.921.921,0,1,0,.932.921A.927.927,0,0,0,126.932,449Z" transform="translate(-126 -449)" fill="#fff"/></g><g transform="translate(15.479 41.353)"><path d="M176.257,449h-9.325a.921.921,0,1,0,0,1.842h9.325a.921.921,0,1,0,0-1.842Z" transform="translate(-166 -449)" fill="#fff"/></g><g transform="translate(0 0)"><path d="M47.743,11.969a.926.926,0,0,0-.6-.856L21.033.669a2.816,2.816,0,0,0-4.2.642L.447,11.187A.927.927,0,0,0,0,11.973v3.684a.927.927,0,0,0,.932.921h.932v4.6A.927.927,0,0,0,2.8,22.1h8.019a.927.927,0,0,0,.932-.921v-4.6h1.865V37.669h-2.8a2.784,2.784,0,0,0-2.8,2.763v5.8a.927.927,0,0,0,.932.921H29.467a.927.927,0,0,0,.932-.921v-5.8a2.784,2.784,0,0,0-2.8-2.763H24.8V16.578H38.418v3.748a.915.915,0,0,0,.273.651l1.592,1.572v5.514a2.759,2.759,0,0,0,.932,5.368,2.813,2.813,0,0,0,2.531-1.586.916.916,0,0,0-.446-1.226.938.938,0,0,0-1.241.441.938.938,0,0,1-.844.529.921.921,0,1,1,0-1.842.927.927,0,0,0,.932-.921V22.55l1.592-1.572a.915.915,0,0,0,.273-.651V16.578h2.8a.927.927,0,0,0,.932-.921V11.973S47.743,11.97,47.743,11.969ZM18.277,2.763a.933.933,0,0,1,1.865,0V9.21H18.277Zm-.932,8.289h5.595v6.294l-6.187-6.294Zm-.593,18.972h6.187v6.294Zm4.915,7.644H15.479V31.374Zm-6.187-9.486V21.888l6.187,6.294Zm1.272-7.644h6.187v6.294ZM15.479,18.7V12.4L21.667,18.7Zm.932-14.975V9.21H14.5l-.036,0-.028,0H14.42L5.229,10.462ZM9.884,20.262H3.73V16.578H9.884ZM1.865,14.736v-1.96l11.749-1.59v3.549ZM27.6,39.511a.928.928,0,0,1,.932.921v4.881H9.884V40.432a.928.928,0,0,1,.932-.921Zm-3.654-30.3h-.036l-.04,0H22.007V3.046l18.8,7.521Zm18.2,10.732-.932.921-.932-.921V16.578h1.865Zm3.73-5.209H24.8V11.13l21.074,1.692Z" transform="translate(0 0)" fill="#fff"/></g></g><path d="M510.13,55.584a2.784,2.784,0,0,1,2.8-2.763h1.121l-1.258,1.852a.925.925,0,0,0-.8.911v.26l-1.866,2.747Zm5.6-23.854H513.86v4.605a.927.927,0,0,1-.932.921h-8.02a.927.927,0,0,1-.932-.921V31.73h-.932a.927.927,0,0,1-.932-.921V27.125a.927.927,0,0,1,.446-.786l16.385-9.877a2.817,2.817,0,0,1,4.2-.642l12.611,5.044-1.061,1.563L524.118,18.2v6.164h1.865l.04,0h.036l6.941.557-1.19,1.752-4.894-.393v3.606h2.711l-1.251,1.842h-1.46v2.15l-1.865,2.745V35.69h-6.187l4.035,4.1-1.062,1.564L517.59,37.04v6.295h2.9l-1.251,1.841h-.379l.224.228-1.062,1.564-.435-.442v1.082l-1.865,2.745Zm-9.885,3.684H512V31.73h-6.155Zm11.75-1.565h6.188l-6.187-6.295Zm7.46-1.35V26.2h-6.187Zm-21.074-4.57v1.959h11.75V26.339Zm3.364-2.315,9.191-1.243h.013l.028,0,.037,0,.036,0h1.877V18.874Zm13.047-7.7v6.447h1.866V17.915a.933.933,0,0,0-1.866,0Z" transform="translate(-19929.133 -2340.194)" fill="#fac913"/></g></g></svg>